<?xml version="1.0" encoding="UTF-8" standalone="no"?><svg xmlns="http://www.w3.org/2000/svg" xmlns:xlink="http://www.w3.org/1999/xlink" contentScriptType="application/ecmascript" contentStyleType="text/css" height="489px" preserveAspectRatio="none" style="width:988px;height:489px;" version="1.1" viewBox="0 0 988 489" width="988px" zoomAndPan="magnify"><defs><filter height="300%" id="f1saqkw1wrspzq" width="300%" x="-1" y="-1"><feGaussianBlur result="blurOut" stdDeviation="2.0"/><feColorMatrix in="blurOut" result="blurOut2" type="matrix" values="0 0 0 0 0 0 0 0 0 0 0 0 0 0 0 0 0 0 .4 0"/><feOffset dx="4.0" dy="4.0" in="blurOut2" result="blurOut3"/><feBlend in="SourceGraphic" in2="blurOut3" mode="normal"/></filter></defs><g><!--MD5=[6d7d587a021629470fd0d5f8ef3407c9]
class Branch--><rect codeLine="2" fill="#FEFECE" filter="url(#f1saqkw1wrspzq)" height="48" id="Branch" style="stroke: #A80036; stroke-width: 1.5;" width="76" x="213.5" y="7"/><ellipse cx="228.5" cy="23" fill="#ADD1B2" rx="11" ry="11" style="stroke: #A80036; stroke-width: 1.0;"/><path d="M231.4688,28.6406 Q230.8906,28.9375 230.25,29.0781 Q229.6094,29.2344 228.9063,29.2344 Q226.4063,29.2344 225.0781,27.5938 Q223.7656,25.9375 223.7656,22.8125 Q223.7656,19.6875 225.0781,18.0313 Q226.4063,16.375 228.9063,16.375 Q229.6094,16.375 230.25,16.5313 Q230.9063,16.6875 231.4688,16.9844 L231.4688,19.7031 Q230.8438,19.125 230.25,18.8594 Q229.6563,18.5781 229.0313,18.5781 Q227.6875,18.5781 227,19.6563 Q226.3125,20.7188 226.3125,22.8125 Q226.3125,24.9063 227,25.9844 Q227.6875,27.0469 229.0313,27.0469 Q229.6563,27.0469 230.25,26.7813 Q230.8438,26.5 231.4688,25.9219 L231.4688,28.6406 Z " fill="#000000"/><text fill="#000000" font-family="sans-serif" font-size="12" lengthAdjust="spacingAndGlyphs" textLength="44" x="242.5" y="27.1543">Branch</text><line style="stroke: #A80036; stroke-width: 1.5;" x1="214.5" x2="288.5" y1="39" y2="39"/><line style="stroke: #A80036; stroke-width: 1.5;" x1="214.5" x2="288.5" y1="47" y2="47"/><!--MD5=[a621b9efb8a8208c95601876011af4cd]
class Build--><rect codeLine="3" fill="#FEFECE" filter="url(#f1saqkw1wrspzq)" height="48" id="Build" style="stroke: #A80036; stroke-width: 1.5;" width="62" x="324.5" y="7"/><ellipse cx="339.5" cy="23" fill="#ADD1B2" rx="11" ry="11" style="stroke: #A80036; stroke-width: 1.0;"/><path d="M342.4688,28.6406 Q341.8906,28.9375 341.25,29.0781 Q340.6094,29.2344 339.9063,29.2344 Q337.4063,29.2344 336.0781,27.5938 Q334.7656,25.9375 334.7656,22.8125 Q334.7656,19.6875 336.0781,18.0313 Q337.4063,16.375 339.9063,16.375 Q340.6094,16.375 341.25,16.5313 Q341.9063,16.6875 342.4688,16.9844 L342.4688,19.7031 Q341.8438,19.125 341.25,18.8594 Q340.6563,18.5781 340.0313,18.5781 Q338.6875,18.5781 338,19.6563 Q337.3125,20.7188 337.3125,22.8125 Q337.3125,24.9063 338,25.9844 Q338.6875,27.0469 340.0313,27.0469 Q340.6563,27.0469 341.25,26.7813 Q341.8438,26.5 342.4688,25.9219 L342.4688,28.6406 Z " fill="#000000"/><text fill="#000000" font-family="sans-serif" font-size="12" lengthAdjust="spacingAndGlyphs" textLength="30" x="353.5" y="27.1543">Build</text><line style="stroke: #A80036; stroke-width: 1.5;" x1="325.5" x2="385.5" y1="39" y2="39"/><line style="stroke: #A80036; stroke-width: 1.5;" x1="325.5" x2="385.5" y1="47" y2="47"/><!--MD5=[bfd2418b046a7d4e4bea09e7ac87d703]
class UseCase--><rect codeLine="4" fill="#FEFECE" filter="url(#f1saqkw1wrspzq)" height="48" id="UseCase" style="stroke: #A80036; stroke-width: 1.5;" width="87" x="422" y="7"/><ellipse cx="437" cy="23" fill="#ADD1B2" rx="11" ry="11" style="stroke: #A80036; stroke-width: 1.0;"/><path d="M439.9688,28.6406 Q439.3906,28.9375 438.75,29.0781 Q438.1094,29.2344 437.4063,29.2344 Q434.9063,29.2344 433.5781,27.5938 Q432.2656,25.9375 432.2656,22.8125 Q432.2656,19.6875 433.5781,18.0313 Q434.9063,16.375 437.4063,16.375 Q438.1094,16.375 438.75,16.5313 Q439.4063,16.6875 439.9688,16.9844 L439.9688,19.7031 Q439.3438,19.125 438.75,18.8594 Q438.1563,18.5781 437.5313,18.5781 Q436.1875,18.5781 435.5,19.6563 Q434.8125,20.7188 434.8125,22.8125 Q434.8125,24.9063 435.5,25.9844 Q436.1875,27.0469 437.5313,27.0469 Q438.1563,27.0469 438.75,26.7813 Q439.3438,26.5 439.9688,25.9219 L439.9688,28.6406 Z " fill="#000000"/><text fill="#000000" font-family="sans-serif" font-size="12" lengthAdjust="spacingAndGlyphs" textLength="55" x="451" y="27.1543">UseCase</text><line style="stroke: #A80036; stroke-width: 1.5;" x1="423" x2="508" y1="39" y2="39"/><line style="stroke: #A80036; stroke-width: 1.5;" x1="423" x2="508" y1="47" y2="47"/><!--MD5=[3618a374bd976662547feba7b42f282d]
class Scenario--><rect codeLine="5" fill="#FEFECE" filter="url(#f1saqkw1wrspzq)" height="48" id="Scenario" style="stroke: #A80036; stroke-width: 1.5;" width="87" x="544" y="7"/><ellipse cx="559" cy="23" fill="#ADD1B2" rx="11" ry="11" style="stroke: #A80036; stroke-width: 1.0;"/><path d="M561.9688,28.6406 Q561.3906,28.9375 560.75,29.0781 Q560.1094,29.2344 559.4063,29.2344 Q556.9063,29.2344 555.5781,27.5938 Q554.2656,25.9375 554.2656,22.8125 Q554.2656,19.6875 555.5781,18.0313 Q556.9063,16.375 559.4063,16.375 Q560.1094,16.375 560.75,16.5313 Q561.4063,16.6875 561.9688,16.9844 L561.9688,19.7031 Q561.3438,19.125 560.75,18.8594 Q560.1563,18.5781 559.5313,18.5781 Q558.1875,18.5781 557.5,19.6563 Q556.8125,20.7188 556.8125,22.8125 Q556.8125,24.9063 557.5,25.9844 Q558.1875,27.0469 559.5313,27.0469 Q560.1563,27.0469 560.75,26.7813 Q561.3438,26.5 561.9688,25.9219 L561.9688,28.6406 Z " fill="#000000"/><text fill="#000000" font-family="sans-serif" font-size="12" lengthAdjust="spacingAndGlyphs" textLength="55" x="573" y="27.1543">Scenario</text><line style="stroke: #A80036; stroke-width: 1.5;" x1="545" x2="630" y1="39" y2="39"/><line style="stroke: #A80036; stroke-width: 1.5;" x1="545" x2="630" y1="47" y2="47"/><!--MD5=[5a2ba6e4c7f78036fecb159f353da9e9]
class Step--><rect codeLine="6" fill="#FEFECE" filter="url(#f1saqkw1wrspzq)" height="48" id="Step" style="stroke: #A80036; stroke-width: 1.5;" width="61" x="666" y="7"/><ellipse cx="681" cy="23" fill="#ADD1B2" rx="11" ry="11" style="stroke: #A80036; stroke-width: 1.0;"/><path d="M683.9688,28.6406 Q683.3906,28.9375 682.75,29.0781 Q682.1094,29.2344 681.4063,29.2344 Q678.9063,29.2344 677.5781,27.5938 Q676.2656,25.9375 676.2656,22.8125 Q676.2656,19.6875 677.5781,18.0313 Q678.9063,16.375 681.4063,16.375 Q682.1094,16.375 682.75,16.5313 Q683.4063,16.6875 683.9688,16.9844 L683.9688,19.7031 Q683.3438,19.125 682.75,18.8594 Q682.1563,18.5781 681.5313,18.5781 Q680.1875,18.5781 679.5,19.6563 Q678.8125,20.7188 678.8125,22.8125 Q678.8125,24.9063 679.5,25.9844 Q680.1875,27.0469 681.5313,27.0469 Q682.1563,27.0469 682.75,26.7813 Q683.3438,26.5 683.9688,25.9219 L683.9688,28.6406 Z " fill="#000000"/><text fill="#000000" font-family="sans-serif" font-size="12" lengthAdjust="spacingAndGlyphs" textLength="29" x="695" y="27.1543">Step</text><line style="stroke: #A80036; stroke-width: 1.5;" x1="667" x2="726" y1="39" y2="39"/><line style="stroke: #A80036; stroke-width: 1.5;" x1="667" x2="726" y1="47" y2="47"/><!--MD5=[2e4f80fa4bb85f85b47fdc78907ad985]
class Details--><rect codeLine="8" fill="#FEFECE" filter="url(#f1saqkw1wrspzq)" height="60.8047" id="Details" style="stroke: #A80036; stroke-width: 1.5;" width="198" x="366.5" y="137"/><ellipse cx="439.75" cy="153" fill="#ADD1B2" rx="11" ry="11" style="stroke: #A80036; stroke-width: 1.0;"/><path d="M442.7188,158.6406 Q442.1406,158.9375 441.5,159.0781 Q440.8594,159.2344 440.1563,159.2344 Q437.6563,159.2344 436.3281,157.5938 Q435.0156,155.9375 435.0156,152.8125 Q435.0156,149.6875 436.3281,148.0313 Q437.6563,146.375 440.1563,146.375 Q440.8594,146.375 441.5,146.5313 Q442.1563,146.6875 442.7188,146.9844 L442.7188,149.7031 Q442.0938,149.125 441.5,148.8594 Q440.9063,148.5781 440.2813,148.5781 Q438.9375,148.5781 438.25,149.6563 Q437.5625,150.7188 437.5625,152.8125 Q437.5625,154.9063 438.25,155.9844 Q438.9375,157.0469 440.2813,157.0469 Q440.9063,157.0469 441.5,156.7813 Q442.0938,156.5 442.7188,155.9219 L442.7188,158.6406 Z " fill="#000000"/><text fill="#000000" font-family="sans-serif" font-size="12" lengthAdjust="spacingAndGlyphs" textLength="43" x="460.25" y="157.1543">Details</text><line style="stroke: #A80036; stroke-width: 1.5;" x1="367.5" x2="563.5" y1="169" y2="169"/><text fill="#000000" font-family="sans-serif" font-size="11" lengthAdjust="spacingAndGlyphs" textLength="186" x="372.5" y="183.2104">properties: Map&lt;String, Object&gt;</text><line style="stroke: #A80036; stroke-width: 1.5;" x1="367.5" x2="563.5" y1="189.8047" y2="189.8047"/><path d="M600,132 L600,163.5 L564.54,167.5 L600,171.5 L600,202.5313 A0,0 0 0 0 600,202.5313 L979,202.5313 A0,0 0 0 0 979,202.5313 L979,142 L969,132 L600,132 A0,0 0 0 0 600,132 " fill="#FBFB77" filter="url(#f1saqkw1wrspzq)" style="stroke: #A80036; stroke-width: 1.0;"/><path d="M969,132 L969,142 L979,142 L969,132 " fill="#FBFB77" style="stroke: #A80036; stroke-width: 1.0;"/><text fill="#000000" font-family="sans-serif" font-size="13" lengthAdjust="spacingAndGlyphs" textLength="321" x="606" y="149.0669">An object's further detail properties as entries with</text><ellipse cx="611.5" cy="159.7656" fill="#000000" rx="2.5" ry="2.5" style="stroke: #000000; stroke-width: 0.0;"/><text fill="#000000" font-family="sans-serif" font-size="13" lengthAdjust="spacingAndGlyphs" textLength="248" x="617" y="164.1997">key: String = the name of the property</text><ellipse cx="611.5" cy="174.8984" fill="#000000" rx="2.5" ry="2.5" style="stroke: #000000; stroke-width: 0.0;"/><text fill="#000000" font-family="sans-serif" font-size="13" lengthAdjust="spacingAndGlyphs" textLength="244" x="617" y="179.3325">value: can be of different object types,</text><text fill="#000000" font-family="sans-serif" font-size="13" lengthAdjust="spacingAndGlyphs" textLength="290" x="674" y="194.4653">e.g. a simple string or a more complex object</text><!--MD5=[aa7f586532e18719e6cefa70fc650583]
class Object--><rect codeLine="24" fill="#FEFECE" filter="url(#f1saqkw1wrspzq)" height="48" id="Object" style="stroke: #A80036; stroke-width: 1.5;" width="72" x="429.5" y="264"/><ellipse cx="444.5" cy="280" fill="#ADD1B2" rx="11" ry="11" style="stroke: #A80036; stroke-width: 1.0;"/><path d="M447.4688,285.6406 Q446.8906,285.9375 446.25,286.0781 Q445.6094,286.2344 444.9063,286.2344 Q442.4063,286.2344 441.0781,284.5938 Q439.7656,282.9375 439.7656,279.8125 Q439.7656,276.6875 441.0781,275.0313 Q442.4063,273.375 444.9063,273.375 Q445.6094,273.375 446.25,273.5313 Q446.9063,273.6875 447.4688,273.9844 L447.4688,276.7031 Q446.8438,276.125 446.25,275.8594 Q445.6563,275.5781 445.0313,275.5781 Q443.6875,275.5781 443,276.6563 Q442.3125,277.7188 442.3125,279.8125 Q442.3125,281.9063 443,282.9844 Q443.6875,284.0469 445.0313,284.0469 Q445.6563,284.0469 446.25,283.7813 Q446.8438,283.5 447.4688,282.9219 L447.4688,285.6406 Z " fill="#000000"/><text fill="#000000" font-family="sans-serif" font-size="12" lengthAdjust="spacingAndGlyphs" textLength="40" x="458.5" y="284.1543">Object</text><line style="stroke: #A80036; stroke-width: 1.5;" x1="430.5" x2="500.5" y1="296" y2="296"/><line style="stroke: #A80036; stroke-width: 1.5;" x1="430.5" x2="500.5" y1="304" y2="304"/><!--MD5=[9df70cf33be424c1b8543b3f439cae89]
class String--><rect codeLine="28" fill="#FEFECE" filter="url(#f1saqkw1wrspzq)" height="48" id="String" style="stroke: #A80036; stroke-width: 1.5;" width="69" x="7" y="408"/><ellipse cx="22" cy="424" fill="#ADD1B2" rx="11" ry="11" style="stroke: #A80036; stroke-width: 1.0;"/><path d="M24.9688,429.6406 Q24.3906,429.9375 23.75,430.0781 Q23.1094,430.2344 22.4063,430.2344 Q19.9063,430.2344 18.5781,428.5938 Q17.2656,426.9375 17.2656,423.8125 Q17.2656,420.6875 18.5781,419.0313 Q19.9063,417.375 22.4063,417.375 Q23.1094,417.375 23.75,417.5313 Q24.4063,417.6875 24.9688,417.9844 L24.9688,420.7031 Q24.3438,420.125 23.75,419.8594 Q23.1563,419.5781 22.5313,419.5781 Q21.1875,419.5781 20.5,420.6563 Q19.8125,421.7188 19.8125,423.8125 Q19.8125,425.9063 20.5,426.9844 Q21.1875,428.0469 22.5313,428.0469 Q23.1563,428.0469 23.75,427.7813 Q24.3438,427.5 24.9688,426.9219 L24.9688,429.6406 Z " fill="#000000"/><text fill="#000000" font-family="sans-serif" font-size="12" lengthAdjust="spacingAndGlyphs" textLength="37" x="36" y="428.1543">String</text><line style="stroke: #A80036; stroke-width: 1.5;" x1="8" x2="75" y1="440" y2="440"/><line style="stroke: #A80036; stroke-width: 1.5;" x1="8" x2="75" y1="448" y2="448"/><!--MD5=[819356125f1ab54ab3e5c0068f02e905]
class ObjectDescription--><rect codeLine="33" fill="#FEFECE" filter="url(#f1saqkw1wrspzq)" height="86.4141" id="ObjectDescription" style="stroke: #A80036; stroke-width: 1.5;" width="143" x="111" y="389"/><ellipse cx="126" cy="405" fill="#ADD1B2" rx="11" ry="11" style="stroke: #A80036; stroke-width: 1.0;"/><path d="M128.9688,410.6406 Q128.3906,410.9375 127.75,411.0781 Q127.1094,411.2344 126.4063,411.2344 Q123.9063,411.2344 122.5781,409.5938 Q121.2656,407.9375 121.2656,404.8125 Q121.2656,401.6875 122.5781,400.0313 Q123.9063,398.375 126.4063,398.375 Q127.1094,398.375 127.75,398.5313 Q128.4063,398.6875 128.9688,398.9844 L128.9688,401.7031 Q128.3438,401.125 127.75,400.8594 Q127.1563,400.5781 126.5313,400.5781 Q125.1875,400.5781 124.5,401.6563 Q123.8125,402.7188 123.8125,404.8125 Q123.8125,406.9063 124.5,407.9844 Q125.1875,409.0469 126.5313,409.0469 Q127.1563,409.0469 127.75,408.7813 Q128.3438,408.5 128.9688,407.9219 L128.9688,410.6406 Z " fill="#000000"/><text fill="#000000" font-family="sans-serif" font-size="12" lengthAdjust="spacingAndGlyphs" textLength="111" x="140" y="409.1543">ObjectDescription</text><line style="stroke: #A80036; stroke-width: 1.5;" x1="112" x2="253" y1="421" y2="421"/><text fill="#000000" font-family="sans-serif" font-size="11" lengthAdjust="spacingAndGlyphs" textLength="74" x="117" y="435.2104">name: String</text><text fill="#000000" font-family="sans-serif" font-size="11" lengthAdjust="spacingAndGlyphs" textLength="66" x="117" y="448.0151">type: String</text><text fill="#000000" font-family="sans-serif" font-size="11" lengthAdjust="spacingAndGlyphs" textLength="85" x="117" y="460.8198">details: Details</text><line style="stroke: #A80036; stroke-width: 1.5;" x1="112" x2="253" y1="467.4141" y2="467.4141"/><!--MD5=[055feb577d512fff82b8508bda04541e]
class ObjectReference--><rect codeLine="42" fill="#FEFECE" filter="url(#f1saqkw1wrspzq)" height="73.6094" id="ObjectReference" style="stroke: #A80036; stroke-width: 1.5;" width="136" x="289.5" y="395"/><ellipse cx="304.5" cy="411" fill="#ADD1B2" rx="11" ry="11" style="stroke: #A80036; stroke-width: 1.0;"/><path d="M307.4688,416.6406 Q306.8906,416.9375 306.25,417.0781 Q305.6094,417.2344 304.9063,417.2344 Q302.4063,417.2344 301.0781,415.5938 Q299.7656,413.9375 299.7656,410.8125 Q299.7656,407.6875 301.0781,406.0313 Q302.4063,404.375 304.9063,404.375 Q305.6094,404.375 306.25,404.5313 Q306.9063,404.6875 307.4688,404.9844 L307.4688,407.7031 Q306.8438,407.125 306.25,406.8594 Q305.6563,406.5781 305.0313,406.5781 Q303.6875,406.5781 303,407.6563 Q302.3125,408.7188 302.3125,410.8125 Q302.3125,412.9063 303,413.9844 Q303.6875,415.0469 305.0313,415.0469 Q305.6563,415.0469 306.25,414.7813 Q306.8438,414.5 307.4688,413.9219 L307.4688,416.6406 Z " fill="#000000"/><text fill="#000000" font-family="sans-serif" font-size="12" lengthAdjust="spacingAndGlyphs" textLength="104" x="318.5" y="415.1543">ObjectReference</text><line style="stroke: #A80036; stroke-width: 1.5;" x1="290.5" x2="424.5" y1="427" y2="427"/><text fill="#000000" font-family="sans-serif" font-size="11" lengthAdjust="spacingAndGlyphs" textLength="74" x="295.5" y="441.2104">name: String</text><text fill="#000000" font-family="sans-serif" font-size="11" lengthAdjust="spacingAndGlyphs" textLength="66" x="295.5" y="454.0151">type: String</text><line style="stroke: #A80036; stroke-width: 1.5;" x1="290.5" x2="424.5" y1="460.6094" y2="460.6094"/><!--MD5=[efa4f010a0e7c7395f45ac8dfaa8f5b8]
class ObjectList--><rect codeLine="50" fill="#FEFECE" filter="url(#f1saqkw1wrspzq)" height="60.8047" id="ObjectList" style="stroke: #A80036; stroke-width: 1.5;" width="126" x="460.5" y="401.5"/><ellipse cx="490.35" cy="417.5" fill="#ADD1B2" rx="11" ry="11" style="stroke: #A80036; stroke-width: 1.0;"/><path d="M493.3188,423.1406 Q492.7406,423.4375 492.1,423.5781 Q491.4594,423.7344 490.7563,423.7344 Q488.2563,423.7344 486.9281,422.0938 Q485.6156,420.4375 485.6156,417.3125 Q485.6156,414.1875 486.9281,412.5313 Q488.2563,410.875 490.7563,410.875 Q491.4594,410.875 492.1,411.0313 Q492.7563,411.1875 493.3188,411.4844 L493.3188,414.2031 Q492.6938,413.625 492.1,413.3594 Q491.5063,413.0781 490.8813,413.0781 Q489.5375,413.0781 488.85,414.1563 Q488.1625,415.2188 488.1625,417.3125 Q488.1625,419.4063 488.85,420.4844 Q489.5375,421.5469 490.8813,421.5469 Q491.5063,421.5469 492.1,421.2813 Q492.6938,421 493.3188,420.4219 L493.3188,423.1406 Z " fill="#000000"/><text fill="#000000" font-family="sans-serif" font-size="12" lengthAdjust="spacingAndGlyphs" textLength="61" x="507.65" y="421.6543">ObjectList</text><line style="stroke: #A80036; stroke-width: 1.5;" x1="461.5" x2="585.5" y1="433.5" y2="433.5"/><text fill="#000000" font-family="sans-serif" font-size="11" lengthAdjust="spacingAndGlyphs" textLength="114" x="466.5" y="447.7104">items: List&lt;Object&gt;</text><line style="stroke: #A80036; stroke-width: 1.5;" x1="461.5" x2="585.5" y1="454.3047" y2="454.3047"/><!--MD5=[bffaf70a14aa7b51dac2063d099d13a9]
class ObjectTreeNode--><rect codeLine="58" fill="#FEFECE" filter="url(#f1saqkw1wrspzq)" height="86.4141" id="ObjectTreeNode" style="stroke: #A80036; stroke-width: 1.5;" width="194" x="621.5" y="389"/><ellipse cx="663.95" cy="405" fill="#ADD1B2" rx="11" ry="11" style="stroke: #A80036; stroke-width: 1.0;"/><path d="M666.9188,410.6406 Q666.3406,410.9375 665.7,411.0781 Q665.0594,411.2344 664.3563,411.2344 Q661.8563,411.2344 660.5281,409.5938 Q659.2156,407.9375 659.2156,404.8125 Q659.2156,401.6875 660.5281,400.0313 Q661.8563,398.375 664.3563,398.375 Q665.0594,398.375 665.7,398.5313 Q666.3563,398.6875 666.9188,398.9844 L666.9188,401.7031 Q666.2938,401.125 665.7,400.8594 Q665.1063,400.5781 664.4813,400.5781 Q663.1375,400.5781 662.45,401.6563 Q661.7625,402.7188 661.7625,404.8125 Q661.7625,406.9063 662.45,407.9844 Q663.1375,409.0469 664.4813,409.0469 Q665.1063,409.0469 665.7,408.7813 Q666.2938,408.5 666.9188,407.9219 L666.9188,410.6406 Z " fill="#000000"/><text fill="#000000" font-family="sans-serif" font-size="12" lengthAdjust="spacingAndGlyphs" textLength="101" x="684.05" y="409.1543">ObjectTreeNode</text><line style="stroke: #A80036; stroke-width: 1.5;" x1="622.5" x2="814.5" y1="421" y2="421"/><text fill="#000000" font-family="sans-serif" font-size="11" lengthAdjust="spacingAndGlyphs" textLength="69" x="627.5" y="435.2104">item: Object</text><text fill="#000000" font-family="sans-serif" font-size="11" lengthAdjust="spacingAndGlyphs" textLength="85" x="627.5" y="448.0151">details: Details</text><text fill="#000000" font-family="sans-serif" font-size="11" lengthAdjust="spacingAndGlyphs" textLength="182" x="627.5" y="460.8198">children: List&lt;ObjectTreeNode&gt;</text><line style="stroke: #A80036; stroke-width: 1.5;" x1="622.5" x2="814.5" y1="467.4141" y2="467.4141"/><!--MD5=[dcc94dc144e322a2d99053e43e2f3d16]
link Branch to Details--><path codeLine="18" d="M281.43,55.04 C300.27,69.18 325.34,87.33 348.5,102 C366.11,113.15 385.78,124.43 403.89,134.36 " fill="none" id="Branch-to-Details" style="stroke: #A80036; stroke-width: 1.0;"/><polygon fill="#A80036" points="408.46,136.85,402.4851,129.0206,404.0738,134.4497,398.6446,136.0385,408.46,136.85" style="stroke: #A80036; stroke-width: 1.0;"/><text fill="#000000" font-family="sans-serif" font-size="13" lengthAdjust="spacingAndGlyphs" textLength="42" x="349.5" y="98.0669">details</text><text fill="#000000" font-family="sans-serif" font-size="13" lengthAdjust="spacingAndGlyphs" textLength="8" x="387.8705" y="126.0823">1</text><!--MD5=[74ef106aa5c4107b0cd54e8f444c7c52]
link Build to Details--><path codeLine="19" d="M374.41,55.12 C391.83,76.42 417.9,108.3 437.69,132.5 " fill="none" id="Build-to-Details" style="stroke: #A80036; stroke-width: 1.0;"/><polygon fill="#A80036" points="441.06,136.62,438.472,127.1173,437.9,132.7451,432.2722,132.1732,441.06,136.62" style="stroke: #A80036; stroke-width: 1.0;"/><text fill="#000000" font-family="sans-serif" font-size="13" lengthAdjust="spacingAndGlyphs" textLength="42" x="411.5" y="98.0669">details</text><text fill="#000000" font-family="sans-serif" font-size="13" lengthAdjust="spacingAndGlyphs" textLength="8" x="427.1943" y="125.8049">1</text><!--MD5=[cb6fcc35f1a7d3500af8b32265dffda3]
link UseCase to Details--><path codeLine="20" d="M465.5,55.12 C465.5,76.16 465.5,107.51 465.5,131.59 " fill="none" id="UseCase-to-Details" style="stroke: #A80036; stroke-width: 1.0;"/><polygon fill="#A80036" points="465.5,136.62,469.5,127.62,465.5,131.62,461.5,127.62,465.5,136.62" style="stroke: #A80036; stroke-width: 1.0;"/><text fill="#000000" font-family="sans-serif" font-size="13" lengthAdjust="spacingAndGlyphs" textLength="42" x="466.5" y="98.0669">details</text><text fill="#000000" font-family="sans-serif" font-size="13" lengthAdjust="spacingAndGlyphs" textLength="8" x="456.675" y="125.8049">1</text><!--MD5=[e00604848fc55cb3987a7bff5766ac07]
link Scenario to Details--><path codeLine="21" d="M566.53,55.12 C547.13,76.51 518.06,108.56 496.07,132.8 " fill="none" id="Scenario-to-Details" style="stroke: #A80036; stroke-width: 1.0;"/><polygon fill="#A80036" points="492.61,136.62,501.62,132.6426,495.9698,132.9171,495.6953,127.2669,492.61,136.62" style="stroke: #A80036; stroke-width: 1.0;"/><text fill="#000000" font-family="sans-serif" font-size="13" lengthAdjust="spacingAndGlyphs" textLength="42" x="537.5" y="98.0669">details</text><text fill="#000000" font-family="sans-serif" font-size="13" lengthAdjust="spacingAndGlyphs" textLength="8" x="489.3764" y="125.8049">1</text><!--MD5=[c11d76ab7c99f76d6d153ad36bdabc2e]
link Step to Details--><path codeLine="22" d="M665.78,52.99 C644.42,67.31 615.12,86.44 588.5,102 C569.6,113.05 548.63,124.38 529.44,134.39 " fill="none" id="Step-to-Details" style="stroke: #A80036; stroke-width: 1.0;"/><polygon fill="#A80036" points="524.6,136.91,534.4307,136.3117,529.0373,134.6055,530.7435,129.2121,524.6,136.91" style="stroke: #A80036; stroke-width: 1.0;"/><text fill="#000000" font-family="sans-serif" font-size="13" lengthAdjust="spacingAndGlyphs" textLength="42" x="616.5" y="98.0669">details</text><text fill="#000000" font-family="sans-serif" font-size="13" lengthAdjust="spacingAndGlyphs" textLength="8" x="527.9644" y="126.1547">1</text><!--MD5=[72d82d6a71702e832375c2c7be5b8ebf]
link Details to Object--><path codeLine="26" d="M465.5,198.1 C465.5,216.64 465.5,240.42 465.5,258.71 " fill="none" id="Details-to-Object" style="stroke: #A80036; stroke-width: 1.0;"/><polygon fill="#A80036" points="465.5,263.72,469.5,254.72,465.5,258.72,461.5,254.72,465.5,263.72" style="stroke: #A80036; stroke-width: 1.0;"/><text fill="#000000" font-family="sans-serif" font-size="13" lengthAdjust="spacingAndGlyphs" textLength="7" x="457.6469" y="253.0567">*</text><!--MD5=[1be87bd6599a58e7235d73d497810def]
reverse link Object to String--><path codeLine="30" d="M409.41,296.63 C334.23,308.48 198.14,335.72 93.5,389 C83.68,394 73.98,401.08 65.68,407.99 " fill="none" id="Object-backto-String" style="stroke: #A80036; stroke-width: 1.0;"/><polygon fill="none" points="408.55,289.68,429.37,293.62,410.63,303.53,408.55,289.68" style="stroke: #A80036; stroke-width: 1.0;"/><!--MD5=[4b242b49336b84019c54619cb4ae6d76]
reverse link Object to ObjectDescription--><path codeLine="39" d="M411.22,316.24 C366.62,338.62 303.06,370.51 254.26,394.99 " fill="none" id="Object-backto-ObjectDescription" style="stroke: #A80036; stroke-width: 1.0;"/><polygon fill="none" points="408.36,309.84,429.37,307.13,414.63,322.35,408.36,309.84" style="stroke: #A80036; stroke-width: 1.0;"/><!--MD5=[90768d3be8c9284f9a059ffc7501e438]
reverse link Object to ObjectReference--><path codeLine="47" d="M435.59,328.33 C419.76,349.14 400.46,374.51 385.01,394.83 " fill="none" id="Object-backto-ObjectReference" style="stroke: #A80036; stroke-width: 1.0;"/><polygon fill="none" points="430.23,323.81,447.91,312.13,441.37,332.29,430.23,323.81" style="stroke: #A80036; stroke-width: 1.0;"/><!--MD5=[98b36489ad41a266897f3d0100a3bcbf]
reverse link Object to ObjectList--><path codeLine="54" d="M477.68,331.53 C480.63,340.69 483.96,350.24 487.5,359 C493.26,373.25 500.72,388.55 507.35,401.36 " fill="none" id="Object-backto-ObjectList" style="stroke: #A80036; stroke-width: 1.0;"/><polygon fill="none" points="470.86,333.19,471.73,312.02,484.26,329.11,470.86,333.19" style="stroke: #A80036; stroke-width: 1.0;"/><!--MD5=[54e702f0ea8beeee1fe80185f140749b]
link ObjectList to Object--><path codeLine="55" d="M511.44,401.47 C501.28,376.59 486.84,341.25 476.88,316.86 " fill="none" id="ObjectList-to-Object" style="stroke: #A80036; stroke-width: 1.0;"/><polygon fill="#A80036" points="474.95,312.13,474.6413,321.974,476.8365,316.7605,482.05,318.9556,474.95,312.13" style="stroke: #A80036; stroke-width: 1.0;"/><text fill="#000000" font-family="sans-serif" font-size="13" lengthAdjust="spacingAndGlyphs" textLength="36" x="493.5" y="355.0669">items</text><text fill="#000000" font-family="sans-serif" font-size="13" lengthAdjust="spacingAndGlyphs" textLength="7" x="469.4003" y="331.9229">*</text><!--MD5=[f4469a0a6b4a5980b6ba83d4777b909c]
reverse link Object to ObjectTreeNode--><path codeLine="64" d="M519.45,319.28 C555.57,339.56 603.63,366.53 643.47,388.89 " fill="none" id="Object-backto-ObjectTreeNode" style="stroke: #A80036; stroke-width: 1.0;"/><polygon fill="none" points="515.76,325.24,501.75,309.35,522.62,313.03,515.76,325.24" style="stroke: #A80036; stroke-width: 1.0;"/><!--MD5=[8c09ff78dd2886f55c2b5be7dd881e4a]
link ObjectTreeNode to Object--><path codeLine="65" d="M667.92,388.93 C647.21,372.95 622.51,355.39 598.5,342 C569.07,325.59 533.51,311.7 506.57,302.26 " fill="none" id="ObjectTreeNode-to-Object" style="stroke: #A80036; stroke-width: 1.0;"/><polygon fill="#A80036" points="501.65,300.55,508.8569,307.2627,506.3775,302.1782,511.462,299.6988,501.65,300.55" style="stroke: #A80036; stroke-width: 1.0;"/><text fill="#000000" font-family="sans-serif" font-size="13" lengthAdjust="spacingAndGlyphs" textLength="29" x="623.5" y="355.0669">item</text><text fill="#000000" font-family="sans-serif" font-size="13" lengthAdjust="spacingAndGlyphs" textLength="8" x="509.5545" y="298.6242">1</text><!--MD5=[d099443d1484f820cea5daa94536e4f3]
link ObjectTreeNode to ObjectTreeNode--><path codeLine="66" d="M815.78,417.53 C835.98,419.05 850.5,423.88 850.5,432 C850.5,439.43 838.37,444.1 820.86,446.01 " fill="none" id="ObjectTreeNode-to-ObjectTreeNode" style="stroke: #A80036; stroke-width: 1.0;"/><polygon fill="#A80036" points="815.78,446.47,825.1076,449.6315,820.7591,446.0135,824.3772,441.6649,815.78,446.47" style="stroke: #A80036; stroke-width: 1.0;"/><text fill="#000000" font-family="sans-serif" font-size="13" lengthAdjust="spacingAndGlyphs" textLength="50" x="856.5" y="436.5669">children</text><text fill="#000000" font-family="sans-serif" font-size="13" lengthAdjust="spacingAndGlyphs" textLength="7" x="823.496" y="444.0598">*</text><!--MD5=[886b22444b0af26c2474fe3f4b9d87f4]
@startuml

class Branch
class Build
class UseCase
class Scenario
class Step

class Details {
    properties: Map<String, Object>
}
note right
An object's further detail properties as entries with
* key: String = the name of the property
* value: can be of different object types,
                 e.g. a simple string or a more complex object
end note

Branch - -> "1" Details : details
Build - -> "1" Details : details
UseCase - -> "1" Details : details
Scenario - -> "1" Details : details
Step - -> "1" Details : details

class Object

Details - -> "*" Object

class String

Object <|- - String


class ObjectDescription {
    name: String
    type: String
    details: Details
}

Object <|- - ObjectDescription


class ObjectReference {
    name: String
    type: String
}

Object <|- - ObjectReference


class ObjectList {
    items: List<Object>
}

Object <|- - ObjectList
ObjectList - -> "*" Object : items


class ObjectTreeNode {
    item: Object
    details: Details
    children: List<ObjectTreeNode>
}

Object <|- - ObjectTreeNode
ObjectTreeNode - -> "1" Object : item
ObjectTreeNode - -> "*" ObjectTreeNode : children


@enduml

PlantUML version 1.2020.20(Sat Nov 21 10:02:45 UTC 2020)
(GPL source distribution)
Java Runtime: OpenJDK Runtime Environment
JVM: OpenJDK 64-Bit Server VM
Default Encoding: UTF-8
Language: en
Country: US
--></g></svg>