<?xml version="1.0" encoding="UTF-8" standalone="no"?><svg xmlns="http://www.w3.org/2000/svg" xmlns:xlink="http://www.w3.org/1999/xlink" contentScriptType="application/ecmascript" contentStyleType="text/css" height="546px" preserveAspectRatio="none" style="width:631px;height:546px;background:#FFFFFF;" version="1.1" viewBox="0 0 631 546" width="631px" zoomAndPan="magnify"><defs><filter height="300%" id="fhcerjaw5w9pg" width="300%" x="-1" y="-1"><feGaussianBlur result="blurOut" stdDeviation="2.0"/><feColorMatrix in="blurOut" result="blurOut2" type="matrix" values="0 0 0 0 0 0 0 0 0 0 0 0 0 0 0 0 0 0 .4 0"/><feOffset dx="4.0" dy="4.0" in="blurOut2" result="blurOut3"/><feBlend in="SourceGraphic" in2="blurOut3" mode="normal"/></filter></defs><g><rect fill="#FEFECE" filter="url(#fhcerjaw5w9pg)" height="37.6094" style="stroke:#A80036;stroke-width:1.5;" width="176" x="15.5" y="122"/><text fill="#000000" font-family="sans-serif" font-size="12" lengthAdjust="spacing" text-decoration="underline" textLength="117" x="45" y="135.1387">scenario: Scenario</text><line style="stroke:#A80036;stroke-width:1.5;" x1="16.5" x2="190.5" y1="139.9688" y2="139.9688"/><text fill="#000000" font-family="sans-serif" font-size="10" lengthAdjust="spacing" textLength="164" x="21.5" y="153.251">name = "Search Book by Author"</text><rect fill="#FEFECE" filter="url(#fhcerjaw5w9pg)" height="33.9688" style="stroke:#A80036;stroke-width:1.5;" width="162" x="270.5" y="124"/><text fill="#000000" font-family="sans-serif" font-size="12" lengthAdjust="spacing" text-decoration="underline" textLength="148" x="277.5" y="137.1387">scenarioDetails: Details</text><line style="stroke:#A80036;stroke-width:1.5;" x1="271.5" x2="431.5" y1="141.9688" y2="141.9688"/><path d="M193.5,6 L193.5,61.3984 A0,0 0 0 0 193.5,61.3984 L347.5,61.3984 L351.5,123.91 L355.5,61.3984 L509.5,61.3984 A0,0 0 0 0 509.5,61.3984 L509.5,16 L499.5,6 L193.5,6 A0,0 0 0 0 193.5,6 " fill="#FBFB77" filter="url(#fhcerjaw5w9pg)" style="stroke:#A80036;stroke-width:1.0;"/><path d="M499.5,6 L499.5,16 L509.5,16 L499.5,6 " fill="#FBFB77" style="stroke:#A80036;stroke-width:1.0;"/><text fill="#000000" font-family="sans-serif" font-size="13" lengthAdjust="spacing" textLength="179" x="199.5" y="23.0669">Details are key-value-maps,</text><text fill="#000000" font-family="sans-serif" font-size="13" lengthAdjust="spacing" textLength="295" x="199.5" y="38.1997">where values can be of type ObjectDescription</text><text fill="#000000" font-family="sans-serif" font-size="13" lengthAdjust="spacing" textLength="153" x="199.5" y="53.3325">to define further objects</text><rect fill="#FEFECE" filter="url(#fhcerjaw5w9pg)" height="49.25" style="stroke:#A80036;stroke-width:1.5;" width="185" x="134" y="237"/><text fill="#000000" font-family="sans-serif" font-size="12" lengthAdjust="spacing" text-decoration="underline" textLength="171" x="141" y="250.1387">service1: ObjectDescription</text><line style="stroke:#A80036;stroke-width:1.5;" x1="135" x2="318" y1="254.9688" y2="254.9688"/><text fill="#000000" font-family="sans-serif" font-size="10" lengthAdjust="spacing" textLength="80" x="140" y="268.251">type = "service"</text><text fill="#000000" font-family="sans-serif" font-size="10" lengthAdjust="spacing" textLength="86" x="140" y="279.8916">name = "Search"</text><rect fill="#FEFECE" filter="url(#fhcerjaw5w9pg)" height="49.25" style="stroke:#A80036;stroke-width:1.5;" width="185" x="380" y="237"/><text fill="#000000" font-family="sans-serif" font-size="12" lengthAdjust="spacing" text-decoration="underline" textLength="171" x="387" y="250.1387">service2: ObjectDescription</text><line style="stroke:#A80036;stroke-width:1.5;" x1="381" x2="564" y1="254.9688" y2="254.9688"/><text fill="#000000" font-family="sans-serif" font-size="10" lengthAdjust="spacing" textLength="80" x="386" y="268.251">type = "service"</text><text fill="#000000" font-family="sans-serif" font-size="10" lengthAdjust="spacing" textLength="83" x="386" y="279.8916">name = "Rating"</text><rect fill="#FEFECE" filter="url(#fhcerjaw5w9pg)" height="72.5313" style="stroke:#A80036;stroke-width:1.5;" width="311" x="7" y="363"/><text fill="#000000" font-family="sans-serif" font-size="12" lengthAdjust="spacing" text-decoration="underline" textLength="146" x="89.5" y="376.1387">service1Details: Details</text><line style="stroke:#A80036;stroke-width:1.5;" x1="8" x2="317" y1="380.9688" y2="380.9688"/><text fill="#000000" font-family="sans-serif" font-size="10" lengthAdjust="spacing" textLength="82" x="13" y="394.251">method = "GET"</text><text fill="#000000" font-family="sans-serif" font-size="10" lengthAdjust="spacing" textLength="205" x="13" y="405.8916">url = "http://mybookstore.com/api/search"</text><text fill="#000000" font-family="sans-serif" font-size="10" lengthAdjust="spacing" textLength="135" x="13" y="417.5322">query-param = "?q=Kafka"</text><text fill="#000000" font-family="sans-serif" font-size="10" lengthAdjust="spacing" textLength="299" x="13" y="429.1729">response = "&lt;books&gt;&lt;book&gt;Der Prozess&lt;/book&gt;&lt;/books&gt;"</text><path d="M71.5,497 L71.5,537.2656 A0,0 0 0 0 71.5,537.2656 L253.5,537.2656 A0,0 0 0 0 253.5,537.2656 L253.5,507 L243.5,497 L166.5,497 L162.5,436.1 L158.5,497 L71.5,497 A0,0 0 0 0 71.5,497 " fill="#FBFB77" filter="url(#fhcerjaw5w9pg)" style="stroke:#A80036;stroke-width:1.0;"/><path d="M243.5,497 L243.5,507 L253.5,507 L243.5,497 " fill="#FBFB77" style="stroke:#A80036;stroke-width:1.0;"/><text fill="#000000" font-family="sans-serif" font-size="13" lengthAdjust="spacing" textLength="151" x="77.5" y="514.0669">Simple Details example</text><text fill="#000000" font-family="sans-serif" font-size="13" lengthAdjust="spacing" textLength="161" x="77.5" y="529.1997">with only String as values</text><rect fill="#FEFECE" filter="url(#fhcerjaw5w9pg)" height="72.5313" style="stroke:#A80036;stroke-width:1.5;" width="264" x="353.5" y="363"/><text fill="#000000" font-family="sans-serif" font-size="12" lengthAdjust="spacing" text-decoration="underline" textLength="146" x="412.5" y="376.1387">service2Details: Details</text><line style="stroke:#A80036;stroke-width:1.5;" x1="354.5" x2="616.5" y1="380.9688" y2="380.9688"/><text fill="#000000" font-family="sans-serif" font-size="10" lengthAdjust="spacing" textLength="74" x="359.5" y="394.251">method: "GET"</text><text fill="#000000" font-family="sans-serif" font-size="10" lengthAdjust="spacing" textLength="193" x="359.5" y="405.8916">url: "http://mybookstore.com/api/rating"</text><text fill="#000000" font-family="sans-serif" font-size="10" lengthAdjust="spacing" textLength="252" x="359.5" y="417.5322">query-param: "?author=kafka&amp;book=der+prozess"</text><text fill="#000000" font-family="sans-serif" font-size="10" lengthAdjust="spacing" textLength="66" x="359.5" y="429.1729">response: "5"</text><!--MD5=[fb3ffb2a88bf2686b0a303a39269ed55]
link scenario to scenarioDetails--><path codeLine="13" d="M191.63,141 C215.55,141 241.41,141 265.23,141 " fill="none" id="scenario-to-scenarioDetails" style="stroke:#A80036;stroke-width:1.0;"/><polygon fill="#A80036" points="270.27,141,261.27,137,265.27,141,261.27,145,270.27,141" style="stroke:#A80036;stroke-width:1.0;"/><text fill="#000000" font-family="sans-serif" font-size="13" lengthAdjust="spacing" textLength="42" x="210" y="134.0669">details</text><!--MD5=[f6e5288ab09af98dc573c8b7a75ecbac]
link scenarioDetails to service1--><path codeLine="20" d="M334.38,158.23 C314.07,177.48 279.89,209.89 255.44,233.06 " fill="none" id="scenarioDetails-to-service1" style="stroke:#A80036;stroke-width:1.0;"/><polygon fill="#A80036" points="251.61,236.7,260.892,233.407,255.2371,233.2585,255.3856,227.6036,251.61,236.7" style="stroke:#A80036;stroke-width:1.0;"/><text fill="#000000" font-family="sans-serif" font-size="13" lengthAdjust="spacing" textLength="53" x="301.5" y="203.0669">service1</text><!--MD5=[8102b75ca1d5668e8ddf4aa6840082e4]
link scenarioDetails to service2--><path codeLine="28" d="M368.32,158.48 C388.05,177.79 421.04,210.1 444.61,233.18 " fill="none" id="scenarioDetails-to-service2" style="stroke:#A80036;stroke-width:1.0;"/><polygon fill="#A80036" points="448.3,236.8,444.6718,227.6438,444.7289,233.3004,439.0724,233.3575,448.3,236.8" style="stroke:#A80036;stroke-width:1.0;"/><text fill="#000000" font-family="sans-serif" font-size="13" lengthAdjust="spacing" textLength="53" x="417.5" y="203.0669">service2</text><!--MD5=[90b95d23e29f7908204944a078730982]
link service1 to service1Details--><path codeLine="42" d="M215.35,286.19 C206.02,306.02 192.49,334.77 181.46,358.21 " fill="none" id="service1-to-service1Details" style="stroke:#A80036;stroke-width:1.0;"/><polygon fill="#A80036" points="179.29,362.82,186.7385,356.3764,181.4169,358.2949,179.4984,352.9733,179.29,362.82" style="stroke:#A80036;stroke-width:1.0;"/><text fill="#000000" font-family="sans-serif" font-size="13" lengthAdjust="spacing" textLength="42" x="201.5" y="329.0669">details</text><!--MD5=[cfbc201f2080c3ec2251863ba8544bc1]
link service2 to service2Details--><path codeLine="51" d="M474.76,286.19 C476.64,305.86 479.36,334.29 481.59,357.62 " fill="none" id="service2-to-service2Details" style="stroke:#A80036;stroke-width:1.0;"/><polygon fill="#A80036" points="482.09,362.82,485.225,353.4834,481.6193,357.8422,477.2605,354.2365,482.09,362.82" style="stroke:#A80036;stroke-width:1.0;"/><text fill="#000000" font-family="sans-serif" font-size="13" lengthAdjust="spacing" textLength="42" x="479.5" y="329.0669">details</text><!--MD5=[b3f185480618be5b6fc379db76d1f531]
@startuml

object "<u>scenario: Scenario" as scenario {
    name = "Search Book by Author"
}

object "<u>scenarioDetails: Details" as scenarioDetails
note top
 Details are key-value-maps,
 where values can be of type ObjectDescription
 to define further objects
end note

scenario -> scenarioDetails : details

object "<u>service1: ObjectDescription" as service1 {
  type = "service"
  name = "Search"
}

scenarioDetails - -> service1 : service1


object "<u>service2: ObjectDescription" as service2 {
  type = "service"
  name = "Rating"
}

scenarioDetails - -> service2 : service2

object "<u>service1Details: Details" as service1Details {
    method = "GET"
    url = "http://mybookstore.com/api/search"
    query-param = "?q=Kafka"
    response = "<books><book>Der Prozess</book></books>"
}

note bottom
    Simple Details example
    with only String as values
end note

service1 - -> service1Details : details

object "<u>service2Details: Details" as service2Details {
    method: "GET"
    url: "http://mybookstore.com/api/rating"
    query-param: "?author=kafka&book=der+prozess"
    response: "5"
  }

service2 - -> service2Details : details

@enduml

PlantUML version 1.2021.7(Sun May 23 12:40:07 UTC 2021)
(GPL source distribution)
Java Runtime: OpenJDK Runtime Environment
JVM: OpenJDK 64-Bit Server VM
Default Encoding: UTF-8
Language: en
Country: US
--></g></svg>