<?xml version="1.0" encoding="UTF-8" standalone="no"?><svg xmlns="http://www.w3.org/2000/svg" xmlns:xlink="http://www.w3.org/1999/xlink" contentScriptType="application/ecmascript" contentStyleType="text/css" height="551px" preserveAspectRatio="none" style="width:669px;height:551px;" version="1.1" viewBox="0 0 669 551" width="669px" zoomAndPan="magnify"><defs><filter height="300%" id="f2ouej3n6qmuz" width="300%" x="-1" y="-1"><feGaussianBlur result="blurOut" stdDeviation="2.0"/><feColorMatrix in="blurOut" result="blurOut2" type="matrix" values="0 0 0 0 0 0 0 0 0 0 0 0 0 0 0 0 0 0 .4 0"/><feOffset dx="4.0" dy="4.0" in="blurOut2" result="blurOut3"/><feBlend in="SourceGraphic" in2="blurOut3" mode="normal"/></filter></defs><g><rect fill="#FEFECE" filter="url(#f2ouej3n6qmuz)" height="37.6094" style="stroke: #A80036; stroke-width: 1.5;" width="176" x="6" y="124"/><text fill="#000000" font-family="sans-serif" font-size="12" lengthAdjust="spacingAndGlyphs" text-decoration="underline" textLength="117" x="35.5" y="137.1387">scenario: Scenario</text><line style="stroke: #A80036; stroke-width: 1.5;" x1="7" x2="181" y1="141.9688" y2="141.9688"/><text fill="#000000" font-family="sans-serif" font-size="10" lengthAdjust="spacingAndGlyphs" textLength="164" x="12" y="155.251">name = "Search Book by Author"</text><rect fill="#FEFECE" filter="url(#f2ouej3n6qmuz)" height="33.9688" style="stroke: #A80036; stroke-width: 1.5;" width="162" x="261" y="126"/><text fill="#000000" font-family="sans-serif" font-size="12" lengthAdjust="spacingAndGlyphs" text-decoration="underline" textLength="148" x="268" y="139.1387">scenarioDetails: Details</text><line style="stroke: #A80036; stroke-width: 1.5;" x1="262" x2="422" y1="143.9688" y2="143.9688"/><path d="M184,8 L184,63.3984 A0,0 0 0 0 184,63.3984 L338,63.3984 L342,125.905 L346,63.3984 L500,63.3984 A0,0 0 0 0 500,63.3984 L500,18 L490,8 L184,8 A0,0 0 0 0 184,8 " fill="#FBFB77" filter="url(#f2ouej3n6qmuz)" style="stroke: #A80036; stroke-width: 1.0;"/><path d="M490,8 L490,18 L500,18 L490,8 " fill="#FBFB77" style="stroke: #A80036; stroke-width: 1.0;"/><text fill="#000000" font-family="sans-serif" font-size="13" lengthAdjust="spacingAndGlyphs" textLength="179" x="190" y="25.0669">Details are key-value-maps,</text><text fill="#000000" font-family="sans-serif" font-size="13" lengthAdjust="spacingAndGlyphs" textLength="295" x="190" y="40.1997">where values can be of type ObjectDescription</text><text fill="#000000" font-family="sans-serif" font-size="13" lengthAdjust="spacingAndGlyphs" textLength="153" x="190" y="55.3325">to define further objects</text><rect fill="#FEFECE" filter="url(#f2ouej3n6qmuz)" height="49.25" style="stroke: #A80036; stroke-width: 1.5;" width="185" x="145.5" y="239"/><text fill="#000000" font-family="sans-serif" font-size="12" lengthAdjust="spacingAndGlyphs" text-decoration="underline" textLength="171" x="152.5" y="252.1387">service1: ObjectDescription</text><line style="stroke: #A80036; stroke-width: 1.5;" x1="146.5" x2="329.5" y1="256.9688" y2="256.9688"/><text fill="#000000" font-family="sans-serif" font-size="10" lengthAdjust="spacingAndGlyphs" textLength="80" x="151.5" y="270.251">type = "service"</text><text fill="#000000" font-family="sans-serif" font-size="10" lengthAdjust="spacingAndGlyphs" textLength="86" x="151.5" y="281.8916">name = "Search"</text><rect fill="#FEFECE" filter="url(#f2ouej3n6qmuz)" height="49.25" style="stroke: #A80036; stroke-width: 1.5;" width="185" x="419.5" y="239"/><text fill="#000000" font-family="sans-serif" font-size="12" lengthAdjust="spacingAndGlyphs" text-decoration="underline" textLength="171" x="426.5" y="252.1387">service2: ObjectDescription</text><line style="stroke: #A80036; stroke-width: 1.5;" x1="420.5" x2="603.5" y1="256.9688" y2="256.9688"/><text fill="#000000" font-family="sans-serif" font-size="10" lengthAdjust="spacingAndGlyphs" textLength="80" x="425.5" y="270.251">type = "service"</text><text fill="#000000" font-family="sans-serif" font-size="10" lengthAdjust="spacingAndGlyphs" textLength="83" x="425.5" y="281.8916">name = "Rating"</text><rect fill="#FEFECE" filter="url(#f2ouej3n6qmuz)" height="72.5313" style="stroke: #A80036; stroke-width: 1.5;" width="311" x="47.5" y="365"/><text fill="#000000" font-family="sans-serif" font-size="12" lengthAdjust="spacingAndGlyphs" text-decoration="underline" textLength="146" x="130" y="378.1387">service1Details: Details</text><line style="stroke: #A80036; stroke-width: 1.5;" x1="48.5" x2="357.5" y1="382.9688" y2="382.9688"/><text fill="#000000" font-family="sans-serif" font-size="10" lengthAdjust="spacingAndGlyphs" textLength="82" x="53.5" y="396.251">method = "GET"</text><text fill="#000000" font-family="sans-serif" font-size="10" lengthAdjust="spacingAndGlyphs" textLength="205" x="53.5" y="407.8916">url = "http://mybookstore.com/api/search"</text><text fill="#000000" font-family="sans-serif" font-size="10" lengthAdjust="spacingAndGlyphs" textLength="135" x="53.5" y="419.5322">query-param = "?q=Kafka"</text><text fill="#000000" font-family="sans-serif" font-size="10" lengthAdjust="spacingAndGlyphs" textLength="299" x="53.5" y="431.1729">response = "&lt;books&gt;&lt;book&gt;Der Prozess&lt;/book&gt;&lt;/books&gt;"</text><path d="M110,499 L110,539.2656 A0,0 0 0 0 110,539.2656 L296,539.2656 A0,0 0 0 0 296,539.2656 L296,509 L286,499 L207,499 L203,438.096 L199,499 L110,499 A0,0 0 0 0 110,499 " fill="#FBFB77" filter="url(#f2ouej3n6qmuz)" style="stroke: #A80036; stroke-width: 1.0;"/><path d="M286,499 L286,509 L296,509 L286,499 " fill="#FBFB77" style="stroke: #A80036; stroke-width: 1.0;"/><text fill="#000000" font-family="sans-serif" font-size="13" lengthAdjust="spacingAndGlyphs" textLength="151" x="116" y="516.0669">Simple Details example</text><text fill="#000000" font-family="sans-serif" font-size="13" lengthAdjust="spacingAndGlyphs" textLength="165" x="116" y="531.1997">with only String as values.</text><rect fill="#FEFECE" filter="url(#f2ouej3n6qmuz)" height="72.5313" style="stroke: #A80036; stroke-width: 1.5;" width="264" x="394" y="365"/><text fill="#000000" font-family="sans-serif" font-size="12" lengthAdjust="spacingAndGlyphs" text-decoration="underline" textLength="146" x="453" y="378.1387">service2Details: Details</text><line style="stroke: #A80036; stroke-width: 1.5;" x1="395" x2="657" y1="382.9688" y2="382.9688"/><text fill="#000000" font-family="sans-serif" font-size="10" lengthAdjust="spacingAndGlyphs" textLength="74" x="400" y="396.251">method: "GET"</text><text fill="#000000" font-family="sans-serif" font-size="10" lengthAdjust="spacingAndGlyphs" textLength="193" x="400" y="407.8916">url: "http://mybookstore.com/api/rating"</text><text fill="#000000" font-family="sans-serif" font-size="10" lengthAdjust="spacingAndGlyphs" textLength="252" x="400" y="419.5322">query-param: "?author=kafka&amp;book=der+prozess"</text><text fill="#000000" font-family="sans-serif" font-size="10" lengthAdjust="spacingAndGlyphs" textLength="66" x="400" y="431.1729">response: "5"</text><!--link scenario to scenarioDetails--><path d="M182.134,143 C206.05,143 231.913,143 255.725,143 " fill="none" id="scenario-scenarioDetails" style="stroke: #A80036; stroke-width: 1.0;"/><polygon fill="#A80036" points="260.774,143,251.774,139,255.774,143,251.774,147,260.774,143" style="stroke: #A80036; stroke-width: 1.0;"/><text fill="#000000" font-family="sans-serif" font-size="13" lengthAdjust="spacingAndGlyphs" textLength="42" x="200.5" y="136.0669">details</text><!--link scenarioDetails to service1--><path d="M327.539,160.477 C310.656,179.714 282.467,211.833 262.225,234.897 " fill="none" id="scenarioDetails-service1" style="stroke: #A80036; stroke-width: 1.0;"/><polygon fill="#A80036" points="258.796,238.805,267.7397,234.6807,262.0948,235.0476,261.7279,229.4027,258.796,238.805" style="stroke: #A80036; stroke-width: 1.0;"/><text fill="#000000" font-family="sans-serif" font-size="13" lengthAdjust="spacingAndGlyphs" textLength="53" x="301" y="205.0669">service1</text><!--link scenarioDetails to service2--><path d="M365.281,160.228 C393.217,179.701 440.45,212.626 473.766,235.849 " fill="none" id="scenarioDetails-service2" style="stroke: #A80036; stroke-width: 1.0;"/><polygon fill="#A80036" points="478.166,238.916,473.0696,230.4883,474.064,236.057,468.4952,237.0515,478.166,238.916" style="stroke: #A80036; stroke-width: 1.0;"/><text fill="#000000" font-family="sans-serif" font-size="13" lengthAdjust="spacingAndGlyphs" textLength="53" x="434" y="205.0669">service2</text><!--link service1 to service1Details--><path d="M231.903,288.189 C226.82,307.941 219.464,336.527 213.444,359.916 " fill="none" id="service1-service1Details" style="stroke: #A80036; stroke-width: 1.0;"/><polygon fill="#A80036" points="212.182,364.823,218.298,357.1032,213.4276,359.9806,210.5502,355.1103,212.182,364.823" style="stroke: #A80036; stroke-width: 1.0;"/><text fill="#000000" font-family="sans-serif" font-size="13" lengthAdjust="spacingAndGlyphs" textLength="42" x="225" y="331.0669">details</text><!--link service2 to service2Details--><path d="M514.439,288.189 C516.463,307.859 519.39,336.288 521.792,359.622 " fill="none" id="service2-service2Details" style="stroke: #A80036; stroke-width: 1.0;"/><polygon fill="#A80036" points="522.327,364.823,525.3829,355.4602,521.8142,359.8494,517.4251,356.2807,522.327,364.823" style="stroke: #A80036; stroke-width: 1.0;"/><text fill="#000000" font-family="sans-serif" font-size="13" lengthAdjust="spacingAndGlyphs" textLength="42" x="520" y="331.0669">details</text><!--
@startuml

object "<u>scenario: Scenario" as scenario {
    name = "Search Book by Author"
}

object "<u>scenarioDetails: Details" as scenarioDetails
note top
 Details are key-value-maps,
 where values can be of type ObjectDescription
 to define further objects
end note

scenario -> scenarioDetails : details

object "<u>service1: ObjectDescription" as service1 {
  type = "service"
  name = "Search"
}

scenarioDetails - -> service1 : service1


object "<u>service2: ObjectDescription" as service2 {
  type = "service"
  name = "Rating"
}

scenarioDetails - -> service2 : service2


object "<u>service1Details: Details" as service1Details {
    method = "GET"
    url = "http://mybookstore.com/api/search"
    query-param = "?q=Kafka"
    response = "<books><book>Der Prozess</book></books>"
}

note bottom
    Simple Details example
    with only String as values.
end note

service1 - -> service1Details : details

object "<u>service2Details: Details" as service2Details {
    method: "GET"
    url: "http://mybookstore.com/api/rating"
    query-param: "?author=kafka&book=der+prozess"
    response: "5"
  }

service2 - -> service2Details : details

@enduml

PlantUML version 1.2019.06(Fri May 24 17:10:25 UTC 2019)
(GPL source distribution)
Java Runtime: OpenJDK Runtime Environment
JVM: OpenJDK 64-Bit Server VM
Java Version: 1.8.0_232-8u232-b09-1~deb9u1-b09
Operating System: Linux
OS Version: 4.15.0-1052-aws
Default Encoding: UTF-8
Language: en
Country: null
--></g></svg>