<?xml version="1.0" encoding="UTF-8" standalone="no"?><svg xmlns="http://www.w3.org/2000/svg" xmlns:xlink="http://www.w3.org/1999/xlink" contentScriptType="application/ecmascript" contentStyleType="text/css" height="515px" preserveAspectRatio="none" style="width:628px;height:515px;" version="1.1" viewBox="0 0 628 515" width="628px" zoomAndPan="magnify"><defs><filter height="300%" id="f2ouej3n6qmuz" width="300%" x="-1" y="-1"><feGaussianBlur result="blurOut" stdDeviation="2.0"/><feColorMatrix in="blurOut" result="blurOut2" type="matrix" values="0 0 0 0 0 0 0 0 0 0 0 0 0 0 0 0 0 0 .4 0"/><feOffset dx="4.0" dy="4.0" in="blurOut2" result="blurOut3"/><feBlend in="SourceGraphic" in2="blurOut3" mode="normal"/></filter></defs><g><rect fill="#FEFECE" filter="url(#f2ouej3n6qmuz)" height="37.6094" style="stroke: #A80036; stroke-width: 1.5;" width="176" x="6" y="123"/><text fill="#000000" font-family="sans-serif" font-size="12" lengthAdjust="spacingAndGlyphs" text-decoration="underline" textLength="117" x="35.5" y="136.1387">scenario: Scenario</text><line style="stroke: #A80036; stroke-width: 1.5;" x1="7" x2="181" y1="140.9688" y2="140.9688"/><text fill="#000000" font-family="sans-serif" font-size="10" lengthAdjust="spacingAndGlyphs" textLength="164" x="12" y="154.251">name = "Search Book by Author"</text><rect fill="#FEFECE" filter="url(#f2ouej3n6qmuz)" height="33.9688" style="stroke: #A80036; stroke-width: 1.5;" width="162" x="217" y="125"/><text fill="#000000" font-family="sans-serif" font-size="12" lengthAdjust="spacingAndGlyphs" text-decoration="underline" textLength="148" x="224" y="138.1387">scenarioDetails: Details</text><line style="stroke: #A80036; stroke-width: 1.5;" x1="218" x2="378" y1="142.9688" y2="142.9688"/><path d="M140,8 L140,63.3984 A0,0 0 0 0 140,63.3984 L294,63.3984 L298,124.836 L302,63.3984 L456,63.3984 A0,0 0 0 0 456,63.3984 L456,18 L446,8 L140,8 A0,0 0 0 0 140,8 " fill="#FBFB77" filter="url(#f2ouej3n6qmuz)" style="stroke: #A80036; stroke-width: 1.0;"/><path d="M446,8 L446,18 L456,18 L446,8 " fill="#FBFB77" style="stroke: #A80036; stroke-width: 1.0;"/><text fill="#000000" font-family="sans-serif" font-size="13" lengthAdjust="spacingAndGlyphs" textLength="179" x="146" y="25.0669">Details are key-value-maps,</text><text fill="#000000" font-family="sans-serif" font-size="13" lengthAdjust="spacingAndGlyphs" textLength="295" x="146" y="40.1997">where values can be of type ObjectDescription</text><text fill="#000000" font-family="sans-serif" font-size="13" lengthAdjust="spacingAndGlyphs" textLength="153" x="146" y="55.3325">to define further objects</text><rect fill="#FEFECE" filter="url(#f2ouej3n6qmuz)" height="49.25" style="stroke: #A80036; stroke-width: 1.5;" width="185" x="95.5" y="221"/><text fill="#000000" font-family="sans-serif" font-size="12" lengthAdjust="spacingAndGlyphs" text-decoration="underline" textLength="171" x="102.5" y="234.1387">service1: ObjectDescription</text><line style="stroke: #A80036; stroke-width: 1.5;" x1="96.5" x2="279.5" y1="238.9688" y2="238.9688"/><text fill="#000000" font-family="sans-serif" font-size="10" lengthAdjust="spacingAndGlyphs" textLength="80" x="101.5" y="252.251">type = "service"</text><text fill="#000000" font-family="sans-serif" font-size="10" lengthAdjust="spacingAndGlyphs" textLength="86" x="101.5" y="263.8916">name = "Search"</text><rect fill="#FEFECE" filter="url(#f2ouej3n6qmuz)" height="49.25" style="stroke: #A80036; stroke-width: 1.5;" width="185" x="366.5" y="221"/><text fill="#000000" font-family="sans-serif" font-size="12" lengthAdjust="spacingAndGlyphs" text-decoration="underline" textLength="171" x="373.5" y="234.1387">service2: ObjectDescription</text><line style="stroke: #A80036; stroke-width: 1.5;" x1="367.5" x2="550.5" y1="238.9688" y2="238.9688"/><text fill="#000000" font-family="sans-serif" font-size="10" lengthAdjust="spacingAndGlyphs" textLength="80" x="372.5" y="252.251">type = "service"</text><text fill="#000000" font-family="sans-serif" font-size="10" lengthAdjust="spacingAndGlyphs" textLength="83" x="372.5" y="263.8916">name = "Rating"</text><rect fill="#FEFECE" filter="url(#f2ouej3n6qmuz)" height="72.5313" style="stroke: #A80036; stroke-width: 1.5;" width="311" x="6.5" y="330"/><text fill="#000000" font-family="sans-serif" font-size="12" lengthAdjust="spacingAndGlyphs" text-decoration="underline" textLength="146" x="89" y="343.1387">service1Details: Details</text><line style="stroke: #A80036; stroke-width: 1.5;" x1="7.5" x2="316.5" y1="347.9688" y2="347.9688"/><text fill="#000000" font-family="sans-serif" font-size="10" lengthAdjust="spacingAndGlyphs" textLength="82" x="12.5" y="361.251">method = "GET"</text><text fill="#000000" font-family="sans-serif" font-size="10" lengthAdjust="spacingAndGlyphs" textLength="205" x="12.5" y="372.8916">url = "http://mybookstore.com/api/search"</text><text fill="#000000" font-family="sans-serif" font-size="10" lengthAdjust="spacingAndGlyphs" textLength="135" x="12.5" y="384.5322">query-param = "?q=Kafka"</text><text fill="#000000" font-family="sans-serif" font-size="10" lengthAdjust="spacingAndGlyphs" textLength="299" x="12.5" y="396.1729">response = "&lt;books&gt;&lt;book&gt;Der Prozess&lt;/book&gt;&lt;/books&gt;"</text><path d="M69,463 L69,503.2656 A0,0 0 0 0 69,503.2656 L255,503.2656 A0,0 0 0 0 255,503.2656 L255,473 L245,463 L166,463 L162,403.1009 L158,463 L69,463 A0,0 0 0 0 69,463 " fill="#FBFB77" filter="url(#f2ouej3n6qmuz)" style="stroke: #A80036; stroke-width: 1.0;"/><path d="M245,463 L245,473 L255,473 L245,463 " fill="#FBFB77" style="stroke: #A80036; stroke-width: 1.0;"/><text fill="#000000" font-family="sans-serif" font-size="13" lengthAdjust="spacingAndGlyphs" textLength="151" x="75" y="480.0669">Simple Details example</text><text fill="#000000" font-family="sans-serif" font-size="13" lengthAdjust="spacingAndGlyphs" textLength="165" x="75" y="495.1997">with only String as values.</text><rect fill="#FEFECE" filter="url(#f2ouej3n6qmuz)" height="72.5313" style="stroke: #A80036; stroke-width: 1.5;" width="264" x="353" y="330"/><text fill="#000000" font-family="sans-serif" font-size="12" lengthAdjust="spacingAndGlyphs" text-decoration="underline" textLength="146" x="412" y="343.1387">service2Details: Details</text><line style="stroke: #A80036; stroke-width: 1.5;" x1="354" x2="616" y1="347.9688" y2="347.9688"/><text fill="#000000" font-family="sans-serif" font-size="10" lengthAdjust="spacingAndGlyphs" textLength="74" x="359" y="361.251">method: "GET"</text><text fill="#000000" font-family="sans-serif" font-size="10" lengthAdjust="spacingAndGlyphs" textLength="193" x="359" y="372.8916">url: "http://mybookstore.com/api/rating"</text><text fill="#000000" font-family="sans-serif" font-size="10" lengthAdjust="spacingAndGlyphs" textLength="252" x="359" y="384.5322">query-param: "?author=kafka&amp;book=der+prozess"</text><text fill="#000000" font-family="sans-serif" font-size="10" lengthAdjust="spacingAndGlyphs" textLength="66" x="359" y="396.1729">response: "5"</text><!--link scenario to scenarioDetails--><path d="M182.055,142 C191.954,142 201.853,142 211.752,142 " fill="none" id="scenario-scenarioDetails" style="stroke: #A80036; stroke-width: 1.0;"/><polygon fill="#A80036" points="216.929,142,207.929,138,211.929,142,207.929,146,216.929,142" style="stroke: #A80036; stroke-width: 1.0;"/><text fill="#000000" font-family="sans-serif" font-size="13" lengthAdjust="spacingAndGlyphs" textLength="42" x="178.688" y="155.0669">details</text><!--link scenarioDetails to service1--><path d="M280.327,159.308 C263.474,174.858 237.768,198.578 217.756,217.044 " fill="none" id="scenarioDetails-service1" style="stroke: #A80036; stroke-width: 1.0;"/><polygon fill="#A80036" points="213.834,220.663,223.1605,217.498,217.5081,217.2717,217.7344,211.6194,213.834,220.663" style="stroke: #A80036; stroke-width: 1.0;"/><text fill="#000000" font-family="sans-serif" font-size="13" lengthAdjust="spacingAndGlyphs" textLength="53" x="193.113" y="186.0219">service1</text><!--link scenarioDetails to service2--><path d="M323.511,159.083 C348.695,174.96 387.634,199.508 417.316,218.221 " fill="none" id="scenarioDetails-service2" style="stroke: #A80036; stroke-width: 1.0;"/><polygon fill="#A80036" points="421.625,220.938,416.1454,212.7542,417.3956,218.2712,411.8786,219.5213,421.625,220.938" style="stroke: #A80036; stroke-width: 1.0;"/><text fill="#000000" font-family="sans-serif" font-size="13" lengthAdjust="spacingAndGlyphs" textLength="53" x="318.625" y="186.1129">service2</text><!--link service1 to service1Details--><path d="M182.863,270.011 C179.454,285.613 174.89,306.504 170.9,324.767 " fill="none" id="service1-service1Details" style="stroke: #A80036; stroke-width: 1.0;"/><polygon fill="#A80036" points="169.791,329.841,175.6199,321.9022,170.8582,324.9562,167.8042,320.1946,169.791,329.841" style="stroke: #A80036; stroke-width: 1.0;"/><text fill="#000000" font-family="sans-serif" font-size="13" lengthAdjust="spacingAndGlyphs" textLength="42" x="133.322" y="296.0169">details</text><!--link service2 to service2Details--><path d="M464.137,270.011 C467.546,285.613 472.11,306.504 476.1,324.767 " fill="none" id="service2-service2Details" style="stroke: #A80036; stroke-width: 1.0;"/><polygon fill="#A80036" points="477.209,329.841,479.1958,320.1946,476.1418,324.9562,471.3801,321.9022,477.209,329.841" style="stroke: #A80036; stroke-width: 1.0;"/><text fill="#000000" font-family="sans-serif" font-size="13" lengthAdjust="spacingAndGlyphs" textLength="42" x="427.678" y="296.0169">details</text><!--
@startuml

object "<u>scenario: Scenario" as scenario {
    name = "Search Book by Author"
}

object "<u>scenarioDetails: Details" as scenarioDetails
note top
 Details are key-value-maps,
 where values can be of type ObjectDescription
 to define further objects
end note

scenario -> scenarioDetails : details

object "<u>service1: ObjectDescription" as service1 {
  type = "service"
  name = "Search"
}

scenarioDetails - -> service1 : service1


object "<u>service2: ObjectDescription" as service2 {
  type = "service"
  name = "Rating"
}

scenarioDetails - -> service2 : service2


object "<u>service1Details: Details" as service1Details {
    method = "GET"
    url = "http://mybookstore.com/api/search"
    query-param = "?q=Kafka"
    response = "<books><book>Der Prozess</book></books>"
}

note bottom
    Simple Details example
    with only String as values.
end note

service1 - -> service1Details : details

object "<u>service2Details: Details" as service2Details {
    method: "GET"
    url: "http://mybookstore.com/api/rating"
    query-param: "?author=kafka&book=der+prozess"
    response: "5"
  }

service2 - -> service2Details : details

@enduml

PlantUML version 1.2019.06(Fri May 24 17:10:25 UTC 2019)
(GPL source distribution)
Java Runtime: OpenJDK Runtime Environment
JVM: OpenJDK 64-Bit Server VM
Java Version: 1.8.0_232-8u232-b09-1~deb9u1-b09
Operating System: Linux
OS Version: 4.15.0-1052-aws
Default Encoding: UTF-8
Language: en
Country: null
--></g></svg>