<?xml version="1.0" encoding="UTF-8" standalone="no"?><svg xmlns="http://www.w3.org/2000/svg" xmlns:xlink="http://www.w3.org/1999/xlink" contentScriptType="application/ecmascript" contentStyleType="text/css" height="512px" preserveAspectRatio="none" style="width:1048px;height:512px;" version="1.1" viewBox="0 0 1048 512" width="1048px" zoomAndPan="magnify"><defs><filter height="300%" id="f1rhp7f04lza4v" width="300%" x="-1" y="-1"><feGaussianBlur result="blurOut" stdDeviation="2.0"/><feColorMatrix in="blurOut" result="blurOut2" type="matrix" values="0 0 0 0 0 0 0 0 0 0 0 0 0 0 0 0 0 0 .4 0"/><feOffset dx="4.0" dy="4.0" in="blurOut2" result="blurOut3"/><feBlend in="SourceGraphic" in2="blurOut3" mode="normal"/></filter></defs><g><!--class UseCase--><rect fill="#FEFECE" filter="url(#f1rhp7f04lza4v)" height="48" id="UseCase" style="stroke: #A80036; stroke-width: 1.5;" width="87" x="357" y="8"/><ellipse cx="372" cy="24" fill="#ADD1B2" rx="11" ry="11" style="stroke: #A80036; stroke-width: 1.0;"/><path d="M374.9688,29.6406 Q374.3906,29.9375 373.75,30.0859 Q373.1094,30.2344 372.4063,30.2344 Q369.9063,30.2344 368.5859,28.5859 Q367.2656,26.9375 367.2656,23.8125 Q367.2656,20.6875 368.5859,19.0313 Q369.9063,17.375 372.4063,17.375 Q373.1094,17.375 373.7578,17.5313 Q374.4063,17.6875 374.9688,17.9844 L374.9688,20.7031 Q374.3438,20.125 373.75,19.8516 Q373.1563,19.5781 372.5313,19.5781 Q371.1875,19.5781 370.5,20.6484 Q369.8125,21.7188 369.8125,23.8125 Q369.8125,25.9063 370.5,26.9766 Q371.1875,28.0469 372.5313,28.0469 Q373.1563,28.0469 373.75,27.7734 Q374.3438,27.5 374.9688,26.9219 L374.9688,29.6406 Z "/><text fill="#000000" font-family="sans-serif" font-size="12" lengthAdjust="spacingAndGlyphs" textLength="55" x="386" y="28.1543">UseCase</text><line style="stroke: #A80036; stroke-width: 1.5;" x1="358" x2="443" y1="40" y2="40"/><line style="stroke: #A80036; stroke-width: 1.5;" x1="358" x2="443" y1="48" y2="48"/><!--class Scenario--><rect fill="#FEFECE" filter="url(#f1rhp7f04lza4v)" height="48" id="Scenario" style="stroke: #A80036; stroke-width: 1.5;" width="87" x="479" y="8"/><ellipse cx="494" cy="24" fill="#ADD1B2" rx="11" ry="11" style="stroke: #A80036; stroke-width: 1.0;"/><path d="M496.9688,29.6406 Q496.3906,29.9375 495.75,30.0859 Q495.1094,30.2344 494.4063,30.2344 Q491.9063,30.2344 490.5859,28.5859 Q489.2656,26.9375 489.2656,23.8125 Q489.2656,20.6875 490.5859,19.0313 Q491.9063,17.375 494.4063,17.375 Q495.1094,17.375 495.7578,17.5313 Q496.4063,17.6875 496.9688,17.9844 L496.9688,20.7031 Q496.3438,20.125 495.75,19.8516 Q495.1563,19.5781 494.5313,19.5781 Q493.1875,19.5781 492.5,20.6484 Q491.8125,21.7188 491.8125,23.8125 Q491.8125,25.9063 492.5,26.9766 Q493.1875,28.0469 494.5313,28.0469 Q495.1563,28.0469 495.75,27.7734 Q496.3438,27.5 496.9688,26.9219 L496.9688,29.6406 Z "/><text fill="#000000" font-family="sans-serif" font-size="12" lengthAdjust="spacingAndGlyphs" textLength="55" x="508" y="28.1543">Scenario</text><line style="stroke: #A80036; stroke-width: 1.5;" x1="480" x2="565" y1="40" y2="40"/><line style="stroke: #A80036; stroke-width: 1.5;" x1="480" x2="565" y1="48" y2="48"/><!--class Step--><rect fill="#FEFECE" filter="url(#f1rhp7f04lza4v)" height="48" id="Step" style="stroke: #A80036; stroke-width: 1.5;" width="61" x="601" y="8"/><ellipse cx="616" cy="24" fill="#ADD1B2" rx="11" ry="11" style="stroke: #A80036; stroke-width: 1.0;"/><path d="M618.9688,29.6406 Q618.3906,29.9375 617.75,30.0859 Q617.1094,30.2344 616.4063,30.2344 Q613.9063,30.2344 612.5859,28.5859 Q611.2656,26.9375 611.2656,23.8125 Q611.2656,20.6875 612.5859,19.0313 Q613.9063,17.375 616.4063,17.375 Q617.1094,17.375 617.7578,17.5313 Q618.4063,17.6875 618.9688,17.9844 L618.9688,20.7031 Q618.3438,20.125 617.75,19.8516 Q617.1563,19.5781 616.5313,19.5781 Q615.1875,19.5781 614.5,20.6484 Q613.8125,21.7188 613.8125,23.8125 Q613.8125,25.9063 614.5,26.9766 Q615.1875,28.0469 616.5313,28.0469 Q617.1563,28.0469 617.75,27.7734 Q618.3438,27.5 618.9688,26.9219 L618.9688,29.6406 Z "/><text fill="#000000" font-family="sans-serif" font-size="12" lengthAdjust="spacingAndGlyphs" textLength="29" x="630" y="28.1543">Step</text><line style="stroke: #A80036; stroke-width: 1.5;" x1="602" x2="661" y1="40" y2="40"/><line style="stroke: #A80036; stroke-width: 1.5;" x1="602" x2="661" y1="48" y2="48"/><!--class Object--><rect fill="#FEFECE" filter="url(#f1rhp7f04lza4v)" height="48" id="Object" style="stroke: #A80036; stroke-width: 1.5;" width="72" x="486.5" y="267"/><ellipse cx="501.5" cy="283" fill="#ADD1B2" rx="11" ry="11" style="stroke: #A80036; stroke-width: 1.0;"/><path d="M504.4688,288.6406 Q503.8906,288.9375 503.25,289.0859 Q502.6094,289.2344 501.9063,289.2344 Q499.4063,289.2344 498.0859,287.5859 Q496.7656,285.9375 496.7656,282.8125 Q496.7656,279.6875 498.0859,278.0313 Q499.4063,276.375 501.9063,276.375 Q502.6094,276.375 503.2578,276.5313 Q503.9063,276.6875 504.4688,276.9844 L504.4688,279.7031 Q503.8438,279.125 503.25,278.8516 Q502.6563,278.5781 502.0313,278.5781 Q500.6875,278.5781 500,279.6484 Q499.3125,280.7188 499.3125,282.8125 Q499.3125,284.9063 500,285.9766 Q500.6875,287.0469 502.0313,287.0469 Q502.6563,287.0469 503.25,286.7734 Q503.8438,286.5 504.4688,285.9219 L504.4688,288.6406 Z "/><text fill="#000000" font-family="sans-serif" font-size="12" lengthAdjust="spacingAndGlyphs" textLength="40" x="515.5" y="287.1543">Object</text><line style="stroke: #A80036; stroke-width: 1.5;" x1="487.5" x2="557.5" y1="299" y2="299"/><line style="stroke: #A80036; stroke-width: 1.5;" x1="487.5" x2="557.5" y1="307" y2="307"/><!--class Details--><rect fill="#FEFECE" filter="url(#f1rhp7f04lza4v)" height="60.8047" id="Details" style="stroke: #A80036; stroke-width: 1.5;" width="198" x="423.5" y="121"/><ellipse cx="496.75" cy="137" fill="#ADD1B2" rx="11" ry="11" style="stroke: #A80036; stroke-width: 1.0;"/><path d="M499.7188,142.6406 Q499.1406,142.9375 498.5,143.0859 Q497.8594,143.2344 497.1563,143.2344 Q494.6563,143.2344 493.3359,141.5859 Q492.0156,139.9375 492.0156,136.8125 Q492.0156,133.6875 493.3359,132.0313 Q494.6563,130.375 497.1563,130.375 Q497.8594,130.375 498.5078,130.5313 Q499.1563,130.6875 499.7188,130.9844 L499.7188,133.7031 Q499.0938,133.125 498.5,132.8516 Q497.9063,132.5781 497.2813,132.5781 Q495.9375,132.5781 495.25,133.6484 Q494.5625,134.7188 494.5625,136.8125 Q494.5625,138.9063 495.25,139.9766 Q495.9375,141.0469 497.2813,141.0469 Q497.9063,141.0469 498.5,140.7734 Q499.0938,140.5 499.7188,139.9219 L499.7188,142.6406 Z "/><text fill="#000000" font-family="sans-serif" font-size="12" lengthAdjust="spacingAndGlyphs" textLength="43" x="517.25" y="141.1543">Details</text><line style="stroke: #A80036; stroke-width: 1.5;" x1="424.5" x2="620.5" y1="153" y2="153"/><text fill="#000000" font-family="sans-serif" font-size="11" lengthAdjust="spacingAndGlyphs" textLength="186" x="429.5" y="167.2104">properties: Map&lt;String, Object&gt;</text><line style="stroke: #A80036; stroke-width: 1.5;" x1="424.5" x2="620.5" y1="173.8047" y2="173.8047"/><path d="M657,116 L657,147.5 L621.535,151.5 L657,155.5 L657,186.5313 A0,0 0 0 0 657,186.5313 L1036,186.5313 A0,0 0 0 0 1036,186.5313 L1036,126 L1026,116 L657,116 A0,0 0 0 0 657,116 " fill="#FBFB77" filter="url(#f1rhp7f04lza4v)" style="stroke: #A80036; stroke-width: 1.0;"/><path d="M1026,116 L1026,126 L1036,126 L1026,116 " fill="#FBFB77" style="stroke: #A80036; stroke-width: 1.0;"/><text fill="#000000" font-family="sans-serif" font-size="13" lengthAdjust="spacingAndGlyphs" textLength="321" x="663" y="133.0669">An object's further detail properties as entries with</text><ellipse cx="668.5" cy="143.7656" fill="#000000" rx="2.5" ry="2.5" style="stroke: #000000; stroke-width: 0.0;"/><text fill="#000000" font-family="sans-serif" font-size="13" lengthAdjust="spacingAndGlyphs" textLength="248" x="674" y="148.1997">key: String = the name of the property</text><ellipse cx="668.5" cy="158.8984" fill="#000000" rx="2.5" ry="2.5" style="stroke: #000000; stroke-width: 0.0;"/><text fill="#000000" font-family="sans-serif" font-size="13" lengthAdjust="spacingAndGlyphs" textLength="244" x="674" y="163.3325">value: can be of different object types,</text><text fill="#000000" font-family="sans-serif" font-size="13" lengthAdjust="spacingAndGlyphs" textLength="290" x="731" y="178.4653">e.g. a simple string or a more complex object</text><!--class String--><rect fill="#FEFECE" filter="url(#f1rhp7f04lza4v)" height="48" id="String" style="stroke: #A80036; stroke-width: 1.5;" width="69" x="6" y="434"/><ellipse cx="21" cy="450" fill="#ADD1B2" rx="11" ry="11" style="stroke: #A80036; stroke-width: 1.0;"/><path d="M23.9688,455.6406 Q23.3906,455.9375 22.75,456.0859 Q22.1094,456.2344 21.4063,456.2344 Q18.9063,456.2344 17.5859,454.5859 Q16.2656,452.9375 16.2656,449.8125 Q16.2656,446.6875 17.5859,445.0313 Q18.9063,443.375 21.4063,443.375 Q22.1094,443.375 22.7578,443.5313 Q23.4063,443.6875 23.9688,443.9844 L23.9688,446.7031 Q23.3438,446.125 22.75,445.8516 Q22.1563,445.5781 21.5313,445.5781 Q20.1875,445.5781 19.5,446.6484 Q18.8125,447.7188 18.8125,449.8125 Q18.8125,451.9063 19.5,452.9766 Q20.1875,454.0469 21.5313,454.0469 Q22.1563,454.0469 22.75,453.7734 Q23.3438,453.5 23.9688,452.9219 L23.9688,455.6406 Z "/><text fill="#000000" font-family="sans-serif" font-size="12" lengthAdjust="spacingAndGlyphs" textLength="37" x="35" y="454.1543">String</text><line style="stroke: #A80036; stroke-width: 1.5;" x1="7" x2="74" y1="466" y2="466"/><line style="stroke: #A80036; stroke-width: 1.5;" x1="7" x2="74" y1="474" y2="474"/><!--class ObjectDescription--><rect fill="#FEFECE" filter="url(#f1rhp7f04lza4v)" height="86.4141" id="ObjectDescription" style="stroke: #A80036; stroke-width: 1.5;" width="143" x="110" y="415"/><ellipse cx="125" cy="431" fill="#ADD1B2" rx="11" ry="11" style="stroke: #A80036; stroke-width: 1.0;"/><path d="M127.9688,436.6406 Q127.3906,436.9375 126.75,437.0859 Q126.1094,437.2344 125.4063,437.2344 Q122.9063,437.2344 121.5859,435.5859 Q120.2656,433.9375 120.2656,430.8125 Q120.2656,427.6875 121.5859,426.0313 Q122.9063,424.375 125.4063,424.375 Q126.1094,424.375 126.7578,424.5313 Q127.4063,424.6875 127.9688,424.9844 L127.9688,427.7031 Q127.3438,427.125 126.75,426.8516 Q126.1563,426.5781 125.5313,426.5781 Q124.1875,426.5781 123.5,427.6484 Q122.8125,428.7188 122.8125,430.8125 Q122.8125,432.9063 123.5,433.9766 Q124.1875,435.0469 125.5313,435.0469 Q126.1563,435.0469 126.75,434.7734 Q127.3438,434.5 127.9688,433.9219 L127.9688,436.6406 Z "/><text fill="#000000" font-family="sans-serif" font-size="12" lengthAdjust="spacingAndGlyphs" textLength="111" x="139" y="435.1543">ObjectDescription</text><line style="stroke: #A80036; stroke-width: 1.5;" x1="111" x2="252" y1="447" y2="447"/><text fill="#000000" font-family="sans-serif" font-size="11" lengthAdjust="spacingAndGlyphs" textLength="74" x="116" y="461.2104">name: String</text><text fill="#000000" font-family="sans-serif" font-size="11" lengthAdjust="spacingAndGlyphs" textLength="66" x="116" y="474.0151">type: String</text><text fill="#000000" font-family="sans-serif" font-size="11" lengthAdjust="spacingAndGlyphs" textLength="85" x="116" y="486.8198">details: Details</text><line style="stroke: #A80036; stroke-width: 1.5;" x1="111" x2="252" y1="493.4141" y2="493.4141"/><!--class ObjectReference--><rect fill="#FEFECE" filter="url(#f1rhp7f04lza4v)" height="73.6094" id="ObjectReference" style="stroke: #A80036; stroke-width: 1.5;" width="136" x="288.5" y="421"/><ellipse cx="303.5" cy="437" fill="#ADD1B2" rx="11" ry="11" style="stroke: #A80036; stroke-width: 1.0;"/><path d="M306.4688,442.6406 Q305.8906,442.9375 305.25,443.0859 Q304.6094,443.2344 303.9063,443.2344 Q301.4063,443.2344 300.0859,441.5859 Q298.7656,439.9375 298.7656,436.8125 Q298.7656,433.6875 300.0859,432.0313 Q301.4063,430.375 303.9063,430.375 Q304.6094,430.375 305.2578,430.5313 Q305.9063,430.6875 306.4688,430.9844 L306.4688,433.7031 Q305.8438,433.125 305.25,432.8516 Q304.6563,432.5781 304.0313,432.5781 Q302.6875,432.5781 302,433.6484 Q301.3125,434.7188 301.3125,436.8125 Q301.3125,438.9063 302,439.9766 Q302.6875,441.0469 304.0313,441.0469 Q304.6563,441.0469 305.25,440.7734 Q305.8438,440.5 306.4688,439.9219 L306.4688,442.6406 Z "/><text fill="#000000" font-family="sans-serif" font-size="12" lengthAdjust="spacingAndGlyphs" textLength="104" x="317.5" y="441.1543">ObjectReference</text><line style="stroke: #A80036; stroke-width: 1.5;" x1="289.5" x2="423.5" y1="453" y2="453"/><text fill="#000000" font-family="sans-serif" font-size="11" lengthAdjust="spacingAndGlyphs" textLength="74" x="294.5" y="467.2104">name: String</text><text fill="#000000" font-family="sans-serif" font-size="11" lengthAdjust="spacingAndGlyphs" textLength="66" x="294.5" y="480.0151">type: String</text><line style="stroke: #A80036; stroke-width: 1.5;" x1="289.5" x2="423.5" y1="486.6094" y2="486.6094"/><!--class ObjectList--><rect fill="#FEFECE" filter="url(#f1rhp7f04lza4v)" height="60.8047" id="ObjectList" style="stroke: #A80036; stroke-width: 1.5;" width="126" x="459.5" y="427.5"/><ellipse cx="489.35" cy="443.5" fill="#ADD1B2" rx="11" ry="11" style="stroke: #A80036; stroke-width: 1.0;"/><path d="M492.3188,449.1406 Q491.7406,449.4375 491.1,449.5859 Q490.4594,449.7344 489.7563,449.7344 Q487.2563,449.7344 485.9359,448.0859 Q484.6156,446.4375 484.6156,443.3125 Q484.6156,440.1875 485.9359,438.5313 Q487.2563,436.875 489.7563,436.875 Q490.4594,436.875 491.1078,437.0313 Q491.7563,437.1875 492.3188,437.4844 L492.3188,440.2031 Q491.6938,439.625 491.1,439.3516 Q490.5063,439.0781 489.8813,439.0781 Q488.5375,439.0781 487.85,440.1484 Q487.1625,441.2188 487.1625,443.3125 Q487.1625,445.4063 487.85,446.4766 Q488.5375,447.5469 489.8813,447.5469 Q490.5063,447.5469 491.1,447.2734 Q491.6938,447 492.3188,446.4219 L492.3188,449.1406 Z "/><text fill="#000000" font-family="sans-serif" font-size="12" lengthAdjust="spacingAndGlyphs" textLength="61" x="506.65" y="447.6543">ObjectList</text><line style="stroke: #A80036; stroke-width: 1.5;" x1="460.5" x2="584.5" y1="459.5" y2="459.5"/><text fill="#000000" font-family="sans-serif" font-size="11" lengthAdjust="spacingAndGlyphs" textLength="114" x="465.5" y="473.7104">items: List&lt;Object&gt;</text><line style="stroke: #A80036; stroke-width: 1.5;" x1="460.5" x2="584.5" y1="480.3047" y2="480.3047"/><!--class ObjectTreeNode--><rect fill="#FEFECE" filter="url(#f1rhp7f04lza4v)" height="86.4141" id="ObjectTreeNode" style="stroke: #A80036; stroke-width: 1.5;" width="194" x="644.5" y="415"/><ellipse cx="686.95" cy="431" fill="#ADD1B2" rx="11" ry="11" style="stroke: #A80036; stroke-width: 1.0;"/><path d="M689.9188,436.6406 Q689.3406,436.9375 688.7,437.0859 Q688.0594,437.2344 687.3563,437.2344 Q684.8563,437.2344 683.5359,435.5859 Q682.2156,433.9375 682.2156,430.8125 Q682.2156,427.6875 683.5359,426.0313 Q684.8563,424.375 687.3563,424.375 Q688.0594,424.375 688.7078,424.5313 Q689.3563,424.6875 689.9188,424.9844 L689.9188,427.7031 Q689.2938,427.125 688.7,426.8516 Q688.1063,426.5781 687.4813,426.5781 Q686.1375,426.5781 685.45,427.6484 Q684.7625,428.7188 684.7625,430.8125 Q684.7625,432.9063 685.45,433.9766 Q686.1375,435.0469 687.4813,435.0469 Q688.1063,435.0469 688.7,434.7734 Q689.2938,434.5 689.9188,433.9219 L689.9188,436.6406 Z "/><text fill="#000000" font-family="sans-serif" font-size="12" lengthAdjust="spacingAndGlyphs" textLength="101" x="707.05" y="435.1543">ObjectTreeNode</text><line style="stroke: #A80036; stroke-width: 1.5;" x1="645.5" x2="837.5" y1="447" y2="447"/><text fill="#000000" font-family="sans-serif" font-size="11" lengthAdjust="spacingAndGlyphs" textLength="69" x="650.5" y="461.2104">item: Object</text><text fill="#000000" font-family="sans-serif" font-size="11" lengthAdjust="spacingAndGlyphs" textLength="85" x="650.5" y="474.0151">details: Details</text><text fill="#000000" font-family="sans-serif" font-size="11" lengthAdjust="spacingAndGlyphs" textLength="182" x="650.5" y="486.8198">children: List&lt;ObjectTreeNode&gt;</text><line style="stroke: #A80036; stroke-width: 1.5;" x1="645.5" x2="837.5" y1="493.4141" y2="493.4141"/><!--link UseCase to Details--><path d="M424.603,56.214 C442.646,73.592 467.588,97.614 487.78,117.061 " fill="none" id="UseCase-Details" style="stroke: #A80036; stroke-width: 1.0;"/><polygon fill="#A80036" points="491.492,120.636,487.7844,111.5117,487.8907,117.1675,482.2348,117.2738,491.492,120.636" style="stroke: #A80036; stroke-width: 1.0;"/><text fill="#000000" font-family="sans-serif" font-size="13" lengthAdjust="spacingAndGlyphs" textLength="42" x="414.972" y="84.4189">details</text><!--link Scenario to Details--><path d="M522.5,56.214 C522.5,73.087 522.5,96.224 522.5,115.355 " fill="none" id="Scenario-Details" style="stroke: #A80036; stroke-width: 1.0;"/><polygon fill="#A80036" points="522.5,120.636,526.5,111.636,522.5,115.636,518.5,111.636,522.5,120.636" style="stroke: #A80036; stroke-width: 1.0;"/><text fill="#000000" font-family="sans-serif" font-size="13" lengthAdjust="spacingAndGlyphs" textLength="42" x="479.5" y="84.3879">details</text><!--link Step to Details--><path d="M609.965,56.214 C593.912,73.52 571.745,97.414 553.745,116.818 " fill="none" id="Step-Details" style="stroke: #A80036; stroke-width: 1.0;"/><polygon fill="#A80036" points="550.204,120.636,559.2578,116.7594,553.6049,116.9708,553.3935,111.3179,550.204,120.636" style="stroke: #A80036; stroke-width: 1.0;"/><text fill="#000000" font-family="sans-serif" font-size="13" lengthAdjust="spacingAndGlyphs" textLength="42" x="537.285" y="84.2759">details</text><!--link Details to Object--><path d="M522.5,182.335 C522.5,205.833 522.5,238.374 522.5,261.516 " fill="none" id="Details-Object" style="stroke: #A80036; stroke-width: 1.0;"/><polygon fill="#A80036" points="522.5,266.597,526.5,257.597,522.5,261.597,518.5,257.597,522.5,266.597" style="stroke: #A80036; stroke-width: 1.0;"/><text fill="#000000" font-family="sans-serif" font-size="13" lengthAdjust="spacingAndGlyphs" textLength="7" x="523.1563" y="255.5136">*</text><!--link Object to String--><path d="M466.351,294.344 C379.926,300.272 211.812,321.191 92.5,395 C76.9685,404.608 63.8018,420.446 54.6033,433.7091 " fill="none" id="Object-String" style="stroke: #A80036; stroke-width: 1.0;"/><polygon fill="none" points="466.101,287.347,486.484,293.137,466.939,301.321,466.101,287.347" style="stroke: #A80036; stroke-width: 1.0;"/><!--link Object to ObjectDescription--><path d="M467.091,310.651 C414.939,329.125 335.374,359.708 270.5,395 C259.748,400.849 248.718,407.725 238.245,414.729 " fill="none" id="Object-ObjectDescription" style="stroke: #A80036; stroke-width: 1.0;"/><polygon fill="none" points="465.122,303.924,486.312,303.951,469.73,317.144,465.122,303.924" style="stroke: #A80036; stroke-width: 1.0;"/><!--link Object to ObjectReference--><path d="M484.503,329.769 C457.008,357.098 420.069,393.814 392.94,420.78 " fill="none" id="Object-ObjectReference" style="stroke: #A80036; stroke-width: 1.0;"/><polygon fill="none" points="479.949,324.425,499.068,315.291,489.818,334.355,479.949,324.425" style="stroke: #A80036; stroke-width: 1.0;"/><!--link Object to ObjectList--><path d="M522.5,335.501 C522.5,364.492 522.5,401.828 522.5,427.4158 " fill="none" id="Object-ObjectList" style="stroke: #A80036; stroke-width: 1.0;"/><polygon fill="none" points="515.5,335.291,522.5,315.291,529.5,335.29,515.5,335.291" style="stroke: #A80036; stroke-width: 1.0;"/><!--link ObjectList to Object--><path d="M522.5,427.4158 C522.5,397.062 522.5,350.174 522.5,320.298 " fill="none" id="ObjectList-Object" style="stroke: #A80036; stroke-width: 1.0;"/><polygon fill="#A80036" points="522.5,315.291,518.5,324.291,522.5,320.291,526.5,324.291,522.5,315.291" style="stroke: #A80036; stroke-width: 1.0;"/><text fill="#000000" font-family="sans-serif" font-size="13" lengthAdjust="spacingAndGlyphs" textLength="36" x="485.5" y="367.4899">items</text><text fill="#000000" font-family="sans-serif" font-size="13" lengthAdjust="spacingAndGlyphs" textLength="7" x="521.1766" y="335.1231">*</text><!--link Object to ObjectTreeNode--><path d="M559.664,328.103 C591.065,353.619 636.397,387.909 674.071,414.708 " fill="none" id="Object-ObjectTreeNode" style="stroke: #A80036; stroke-width: 1.0;"/><polygon fill="none" points="555.138,333.444,544.209,315.291,564.073,322.666,555.138,333.444" style="stroke: #A80036; stroke-width: 1.0;"/><!--link ObjectTreeNode to Object--><path d="M697.329,414.709 C657.998,383.095 601.459,341.053 563.16,315.291 " fill="none" id="ObjectTreeNode-Object" style="stroke: #A80036; stroke-width: 1.0;"/><polygon fill="#A80036" points="558.582,312.232,563.8418,320.5588,562.739,315.0104,568.2873,313.9076,558.582,312.232" style="stroke: #A80036; stroke-width: 1.0;"/><text fill="#000000" font-family="sans-serif" font-size="13" lengthAdjust="spacingAndGlyphs" textLength="29" x="599.019" y="358.2509">item</text><text fill="#000000" font-family="sans-serif" font-size="13" lengthAdjust="spacingAndGlyphs" textLength="8" x="566.222" y="316.0256">1</text><!--link ObjectTreeNode to ObjectTreeNode--><path d="M838.619,426.8755 C871.296,426.7941 897.5,437.1689 897.5,458 C897.5,477.6919 874.084,488.0399 843.919,489.0441 " fill="none" id="ObjectTreeNode-ObjectTreeNode" style="stroke: #A80036; stroke-width: 1.0;"/><polygon fill="#A80036" points="838.619,489.1245,847.6785,492.9878,843.6184,489.0488,847.5574,484.9887,838.619,489.1245" style="stroke: #A80036; stroke-width: 1.0;"/><text fill="#000000" font-family="sans-serif" font-size="13" lengthAdjust="spacingAndGlyphs" textLength="50" x="845.001" y="417.9419">children</text><text fill="#000000" font-family="sans-serif" font-size="13" lengthAdjust="spacingAndGlyphs" textLength="7" x="846.5395" y="489.9341">*</text><!--
@startuml

class UseCase
class Scenario
class Step

class Object

class Details {
    properties: Map<String, Object>
}
note right
An object's further detail properties as entries with
* key: String = the name of the property
* value: can be of different object types,
                 e.g. a simple string or a more complex object
end note

class String

class ObjectDescription {
    name: String
    type: String
    details: Details
}

class ObjectReference {
    name: String
    type: String
}

class ObjectList {
    items: List<Object>
}

class ObjectTreeNode {
    item: Object
    details: Details
    children: List<ObjectTreeNode>
}

UseCase - -> Details : details
Scenario - -> Details : details
Step - -> Details : details

Details - -> "*" Object

Object <|- - String
Object <|- - ObjectDescription
Object <|- - ObjectReference
Object <|- - ObjectList
Object <|- - ObjectTreeNode

ObjectList - -> "*" Object : items
ObjectTreeNode - -> "1" Object : item
ObjectTreeNode - -> "*" ObjectTreeNode : children

@enduml

PlantUML version 1.2019.06(Fri May 24 17:10:25 UTC 2019)
(GPL source distribution)
Java Runtime: OpenJDK Runtime Environment
JVM: OpenJDK 64-Bit Server VM
Java Version: 1.8.0_232-8u232-b09-1~deb9u1-b09
Operating System: Linux
OS Version: 4.15.0-1052-aws
Default Encoding: UTF-8
Language: en
Country: null
--></g></svg>