<?xml version="1.0" encoding="UTF-8" standalone="no"?><svg xmlns="http://www.w3.org/2000/svg" xmlns:xlink="http://www.w3.org/1999/xlink" contentScriptType="application/ecmascript" contentStyleType="text/css" height="487px" preserveAspectRatio="none" style="width:990px;height:487px;" version="1.1" viewBox="0 0 990 487" width="990px" zoomAndPan="magnify"><defs><filter height="300%" id="f1rhp7f04lza4v" width="300%" x="-1" y="-1"><feGaussianBlur result="blurOut" stdDeviation="2.0"/><feColorMatrix in="blurOut" result="blurOut2" type="matrix" values="0 0 0 0 0 0 0 0 0 0 0 0 0 0 0 0 0 0 .4 0"/><feOffset dx="4.0" dy="4.0" in="blurOut2" result="blurOut3"/><feBlend in="SourceGraphic" in2="blurOut3" mode="normal"/></filter></defs><g><!--class UseCase--><rect fill="#FEFECE" filter="url(#f1rhp7f04lza4v)" height="48" id="UseCase" style="stroke: #A80036; stroke-width: 1.5;" width="87" x="299" y="8"/><ellipse cx="314" cy="24" fill="#ADD1B2" rx="11" ry="11" style="stroke: #A80036; stroke-width: 1.0;"/><path d="M316.9688,29.6406 Q316.3906,29.9375 315.75,30.0859 Q315.1094,30.2344 314.4063,30.2344 Q311.9063,30.2344 310.5859,28.5859 Q309.2656,26.9375 309.2656,23.8125 Q309.2656,20.6875 310.5859,19.0313 Q311.9063,17.375 314.4063,17.375 Q315.1094,17.375 315.7578,17.5313 Q316.4063,17.6875 316.9688,17.9844 L316.9688,20.7031 Q316.3438,20.125 315.75,19.8516 Q315.1563,19.5781 314.5313,19.5781 Q313.1875,19.5781 312.5,20.6484 Q311.8125,21.7188 311.8125,23.8125 Q311.8125,25.9063 312.5,26.9766 Q313.1875,28.0469 314.5313,28.0469 Q315.1563,28.0469 315.75,27.7734 Q316.3438,27.5 316.9688,26.9219 L316.9688,29.6406 Z "/><text fill="#000000" font-family="sans-serif" font-size="12" lengthAdjust="spacingAndGlyphs" textLength="55" x="328" y="28.1543">UseCase</text><line style="stroke: #A80036; stroke-width: 1.5;" x1="300" x2="385" y1="40" y2="40"/><line style="stroke: #A80036; stroke-width: 1.5;" x1="300" x2="385" y1="48" y2="48"/><!--class Scenario--><rect fill="#FEFECE" filter="url(#f1rhp7f04lza4v)" height="48" id="Scenario" style="stroke: #A80036; stroke-width: 1.5;" width="87" x="421" y="8"/><ellipse cx="436" cy="24" fill="#ADD1B2" rx="11" ry="11" style="stroke: #A80036; stroke-width: 1.0;"/><path d="M438.9688,29.6406 Q438.3906,29.9375 437.75,30.0859 Q437.1094,30.2344 436.4063,30.2344 Q433.9063,30.2344 432.5859,28.5859 Q431.2656,26.9375 431.2656,23.8125 Q431.2656,20.6875 432.5859,19.0313 Q433.9063,17.375 436.4063,17.375 Q437.1094,17.375 437.7578,17.5313 Q438.4063,17.6875 438.9688,17.9844 L438.9688,20.7031 Q438.3438,20.125 437.75,19.8516 Q437.1563,19.5781 436.5313,19.5781 Q435.1875,19.5781 434.5,20.6484 Q433.8125,21.7188 433.8125,23.8125 Q433.8125,25.9063 434.5,26.9766 Q435.1875,28.0469 436.5313,28.0469 Q437.1563,28.0469 437.75,27.7734 Q438.3438,27.5 438.9688,26.9219 L438.9688,29.6406 Z "/><text fill="#000000" font-family="sans-serif" font-size="12" lengthAdjust="spacingAndGlyphs" textLength="55" x="450" y="28.1543">Scenario</text><line style="stroke: #A80036; stroke-width: 1.5;" x1="422" x2="507" y1="40" y2="40"/><line style="stroke: #A80036; stroke-width: 1.5;" x1="422" x2="507" y1="48" y2="48"/><!--class Step--><rect fill="#FEFECE" filter="url(#f1rhp7f04lza4v)" height="48" id="Step" style="stroke: #A80036; stroke-width: 1.5;" width="61" x="543" y="8"/><ellipse cx="558" cy="24" fill="#ADD1B2" rx="11" ry="11" style="stroke: #A80036; stroke-width: 1.0;"/><path d="M560.9688,29.6406 Q560.3906,29.9375 559.75,30.0859 Q559.1094,30.2344 558.4063,30.2344 Q555.9063,30.2344 554.5859,28.5859 Q553.2656,26.9375 553.2656,23.8125 Q553.2656,20.6875 554.5859,19.0313 Q555.9063,17.375 558.4063,17.375 Q559.1094,17.375 559.7578,17.5313 Q560.4063,17.6875 560.9688,17.9844 L560.9688,20.7031 Q560.3438,20.125 559.75,19.8516 Q559.1563,19.5781 558.5313,19.5781 Q557.1875,19.5781 556.5,20.6484 Q555.8125,21.7188 555.8125,23.8125 Q555.8125,25.9063 556.5,26.9766 Q557.1875,28.0469 558.5313,28.0469 Q559.1563,28.0469 559.75,27.7734 Q560.3438,27.5 560.9688,26.9219 L560.9688,29.6406 Z "/><text fill="#000000" font-family="sans-serif" font-size="12" lengthAdjust="spacingAndGlyphs" textLength="29" x="572" y="28.1543">Step</text><line style="stroke: #A80036; stroke-width: 1.5;" x1="544" x2="603" y1="40" y2="40"/><line style="stroke: #A80036; stroke-width: 1.5;" x1="544" x2="603" y1="48" y2="48"/><!--class Object--><rect fill="#FEFECE" filter="url(#f1rhp7f04lza4v)" height="48" id="Object" style="stroke: #A80036; stroke-width: 1.5;" width="72" x="428.5" y="265"/><ellipse cx="443.5" cy="281" fill="#ADD1B2" rx="11" ry="11" style="stroke: #A80036; stroke-width: 1.0;"/><path d="M446.4688,286.6406 Q445.8906,286.9375 445.25,287.0859 Q444.6094,287.2344 443.9063,287.2344 Q441.4063,287.2344 440.0859,285.5859 Q438.7656,283.9375 438.7656,280.8125 Q438.7656,277.6875 440.0859,276.0313 Q441.4063,274.375 443.9063,274.375 Q444.6094,274.375 445.2578,274.5313 Q445.9063,274.6875 446.4688,274.9844 L446.4688,277.7031 Q445.8438,277.125 445.25,276.8516 Q444.6563,276.5781 444.0313,276.5781 Q442.6875,276.5781 442,277.6484 Q441.3125,278.7188 441.3125,280.8125 Q441.3125,282.9063 442,283.9766 Q442.6875,285.0469 444.0313,285.0469 Q444.6563,285.0469 445.25,284.7734 Q445.8438,284.5 446.4688,283.9219 L446.4688,286.6406 Z "/><text fill="#000000" font-family="sans-serif" font-size="12" lengthAdjust="spacingAndGlyphs" textLength="40" x="457.5" y="285.1543">Object</text><line style="stroke: #A80036; stroke-width: 1.5;" x1="429.5" x2="499.5" y1="297" y2="297"/><line style="stroke: #A80036; stroke-width: 1.5;" x1="429.5" x2="499.5" y1="305" y2="305"/><!--class Details--><rect fill="#FEFECE" filter="url(#f1rhp7f04lza4v)" height="60.8047" id="Details" style="stroke: #A80036; stroke-width: 1.5;" width="198" x="365.5" y="138"/><ellipse cx="438.75" cy="154" fill="#ADD1B2" rx="11" ry="11" style="stroke: #A80036; stroke-width: 1.0;"/><path d="M441.7188,159.6406 Q441.1406,159.9375 440.5,160.0859 Q439.8594,160.2344 439.1563,160.2344 Q436.6563,160.2344 435.3359,158.5859 Q434.0156,156.9375 434.0156,153.8125 Q434.0156,150.6875 435.3359,149.0313 Q436.6563,147.375 439.1563,147.375 Q439.8594,147.375 440.5078,147.5313 Q441.1563,147.6875 441.7188,147.9844 L441.7188,150.7031 Q441.0938,150.125 440.5,149.8516 Q439.9063,149.5781 439.2813,149.5781 Q437.9375,149.5781 437.25,150.6484 Q436.5625,151.7188 436.5625,153.8125 Q436.5625,155.9063 437.25,156.9766 Q437.9375,158.0469 439.2813,158.0469 Q439.9063,158.0469 440.5,157.7734 Q441.0938,157.5 441.7188,156.9219 L441.7188,159.6406 Z "/><text fill="#000000" font-family="sans-serif" font-size="12" lengthAdjust="spacingAndGlyphs" textLength="43" x="459.25" y="158.1543">Details</text><line style="stroke: #A80036; stroke-width: 1.5;" x1="366.5" x2="562.5" y1="170" y2="170"/><text fill="#000000" font-family="sans-serif" font-size="11" lengthAdjust="spacingAndGlyphs" textLength="186" x="371.5" y="184.2104">properties: Map&lt;String, Object&gt;</text><line style="stroke: #A80036; stroke-width: 1.5;" x1="366.5" x2="562.5" y1="190.8047" y2="190.8047"/><path d="M599,133 L599,164.5 L563.535,168.5 L599,172.5 L599,203.5313 A0,0 0 0 0 599,203.5313 L978,203.5313 A0,0 0 0 0 978,203.5313 L978,143 L968,133 L599,133 A0,0 0 0 0 599,133 " fill="#FBFB77" filter="url(#f1rhp7f04lza4v)" style="stroke: #A80036; stroke-width: 1.0;"/><path d="M968,133 L968,143 L978,143 L968,133 " fill="#FBFB77" style="stroke: #A80036; stroke-width: 1.0;"/><text fill="#000000" font-family="sans-serif" font-size="13" lengthAdjust="spacingAndGlyphs" textLength="321" x="605" y="150.0669">An object's further detail properties as entries with</text><ellipse cx="610.5" cy="160.7656" fill="#000000" rx="2.5" ry="2.5" style="stroke: #000000; stroke-width: 0.0;"/><text fill="#000000" font-family="sans-serif" font-size="13" lengthAdjust="spacingAndGlyphs" textLength="248" x="616" y="165.1997">key: String = the name of the property</text><ellipse cx="610.5" cy="175.8984" fill="#000000" rx="2.5" ry="2.5" style="stroke: #000000; stroke-width: 0.0;"/><text fill="#000000" font-family="sans-serif" font-size="13" lengthAdjust="spacingAndGlyphs" textLength="244" x="616" y="180.3325">value: can be of different object types,</text><text fill="#000000" font-family="sans-serif" font-size="13" lengthAdjust="spacingAndGlyphs" textLength="290" x="673" y="195.4653">e.g. a simple string or a more complex object</text><!--class String--><rect fill="#FEFECE" filter="url(#f1rhp7f04lza4v)" height="48" id="String" style="stroke: #A80036; stroke-width: 1.5;" width="69" x="6" y="409"/><ellipse cx="21" cy="425" fill="#ADD1B2" rx="11" ry="11" style="stroke: #A80036; stroke-width: 1.0;"/><path d="M23.9688,430.6406 Q23.3906,430.9375 22.75,431.0859 Q22.1094,431.2344 21.4063,431.2344 Q18.9063,431.2344 17.5859,429.5859 Q16.2656,427.9375 16.2656,424.8125 Q16.2656,421.6875 17.5859,420.0313 Q18.9063,418.375 21.4063,418.375 Q22.1094,418.375 22.7578,418.5313 Q23.4063,418.6875 23.9688,418.9844 L23.9688,421.7031 Q23.3438,421.125 22.75,420.8516 Q22.1563,420.5781 21.5313,420.5781 Q20.1875,420.5781 19.5,421.6484 Q18.8125,422.7188 18.8125,424.8125 Q18.8125,426.9063 19.5,427.9766 Q20.1875,429.0469 21.5313,429.0469 Q22.1563,429.0469 22.75,428.7734 Q23.3438,428.5 23.9688,427.9219 L23.9688,430.6406 Z "/><text fill="#000000" font-family="sans-serif" font-size="12" lengthAdjust="spacingAndGlyphs" textLength="37" x="35" y="429.1543">String</text><line style="stroke: #A80036; stroke-width: 1.5;" x1="7" x2="74" y1="441" y2="441"/><line style="stroke: #A80036; stroke-width: 1.5;" x1="7" x2="74" y1="449" y2="449"/><!--class ObjectDescription--><rect fill="#FEFECE" filter="url(#f1rhp7f04lza4v)" height="86.4141" id="ObjectDescription" style="stroke: #A80036; stroke-width: 1.5;" width="143" x="110" y="390"/><ellipse cx="125" cy="406" fill="#ADD1B2" rx="11" ry="11" style="stroke: #A80036; stroke-width: 1.0;"/><path d="M127.9688,411.6406 Q127.3906,411.9375 126.75,412.0859 Q126.1094,412.2344 125.4063,412.2344 Q122.9063,412.2344 121.5859,410.5859 Q120.2656,408.9375 120.2656,405.8125 Q120.2656,402.6875 121.5859,401.0313 Q122.9063,399.375 125.4063,399.375 Q126.1094,399.375 126.7578,399.5313 Q127.4063,399.6875 127.9688,399.9844 L127.9688,402.7031 Q127.3438,402.125 126.75,401.8516 Q126.1563,401.5781 125.5313,401.5781 Q124.1875,401.5781 123.5,402.6484 Q122.8125,403.7188 122.8125,405.8125 Q122.8125,407.9063 123.5,408.9766 Q124.1875,410.0469 125.5313,410.0469 Q126.1563,410.0469 126.75,409.7734 Q127.3438,409.5 127.9688,408.9219 L127.9688,411.6406 Z "/><text fill="#000000" font-family="sans-serif" font-size="12" lengthAdjust="spacingAndGlyphs" textLength="111" x="139" y="410.1543">ObjectDescription</text><line style="stroke: #A80036; stroke-width: 1.5;" x1="111" x2="252" y1="422" y2="422"/><text fill="#000000" font-family="sans-serif" font-size="11" lengthAdjust="spacingAndGlyphs" textLength="74" x="116" y="436.2104">name: String</text><text fill="#000000" font-family="sans-serif" font-size="11" lengthAdjust="spacingAndGlyphs" textLength="66" x="116" y="449.0151">type: String</text><text fill="#000000" font-family="sans-serif" font-size="11" lengthAdjust="spacingAndGlyphs" textLength="85" x="116" y="461.8198">details: Details</text><line style="stroke: #A80036; stroke-width: 1.5;" x1="111" x2="252" y1="468.4141" y2="468.4141"/><!--class ObjectReference--><rect fill="#FEFECE" filter="url(#f1rhp7f04lza4v)" height="73.6094" id="ObjectReference" style="stroke: #A80036; stroke-width: 1.5;" width="136" x="288.5" y="396"/><ellipse cx="303.5" cy="412" fill="#ADD1B2" rx="11" ry="11" style="stroke: #A80036; stroke-width: 1.0;"/><path d="M306.4688,417.6406 Q305.8906,417.9375 305.25,418.0859 Q304.6094,418.2344 303.9063,418.2344 Q301.4063,418.2344 300.0859,416.5859 Q298.7656,414.9375 298.7656,411.8125 Q298.7656,408.6875 300.0859,407.0313 Q301.4063,405.375 303.9063,405.375 Q304.6094,405.375 305.2578,405.5313 Q305.9063,405.6875 306.4688,405.9844 L306.4688,408.7031 Q305.8438,408.125 305.25,407.8516 Q304.6563,407.5781 304.0313,407.5781 Q302.6875,407.5781 302,408.6484 Q301.3125,409.7188 301.3125,411.8125 Q301.3125,413.9063 302,414.9766 Q302.6875,416.0469 304.0313,416.0469 Q304.6563,416.0469 305.25,415.7734 Q305.8438,415.5 306.4688,414.9219 L306.4688,417.6406 Z "/><text fill="#000000" font-family="sans-serif" font-size="12" lengthAdjust="spacingAndGlyphs" textLength="104" x="317.5" y="416.1543">ObjectReference</text><line style="stroke: #A80036; stroke-width: 1.5;" x1="289.5" x2="423.5" y1="428" y2="428"/><text fill="#000000" font-family="sans-serif" font-size="11" lengthAdjust="spacingAndGlyphs" textLength="74" x="294.5" y="442.2104">name: String</text><text fill="#000000" font-family="sans-serif" font-size="11" lengthAdjust="spacingAndGlyphs" textLength="66" x="294.5" y="455.0151">type: String</text><line style="stroke: #A80036; stroke-width: 1.5;" x1="289.5" x2="423.5" y1="461.6094" y2="461.6094"/><!--class ObjectList--><rect fill="#FEFECE" filter="url(#f1rhp7f04lza4v)" height="60.8047" id="ObjectList" style="stroke: #A80036; stroke-width: 1.5;" width="126" x="459.5" y="402.5"/><ellipse cx="489.35" cy="418.5" fill="#ADD1B2" rx="11" ry="11" style="stroke: #A80036; stroke-width: 1.0;"/><path d="M492.3188,424.1406 Q491.7406,424.4375 491.1,424.5859 Q490.4594,424.7344 489.7563,424.7344 Q487.2563,424.7344 485.9359,423.0859 Q484.6156,421.4375 484.6156,418.3125 Q484.6156,415.1875 485.9359,413.5313 Q487.2563,411.875 489.7563,411.875 Q490.4594,411.875 491.1078,412.0313 Q491.7563,412.1875 492.3188,412.4844 L492.3188,415.2031 Q491.6938,414.625 491.1,414.3516 Q490.5063,414.0781 489.8813,414.0781 Q488.5375,414.0781 487.85,415.1484 Q487.1625,416.2188 487.1625,418.3125 Q487.1625,420.4063 487.85,421.4766 Q488.5375,422.5469 489.8813,422.5469 Q490.5063,422.5469 491.1,422.2734 Q491.6938,422 492.3188,421.4219 L492.3188,424.1406 Z "/><text fill="#000000" font-family="sans-serif" font-size="12" lengthAdjust="spacingAndGlyphs" textLength="61" x="506.65" y="422.6543">ObjectList</text><line style="stroke: #A80036; stroke-width: 1.5;" x1="460.5" x2="584.5" y1="434.5" y2="434.5"/><text fill="#000000" font-family="sans-serif" font-size="11" lengthAdjust="spacingAndGlyphs" textLength="114" x="465.5" y="448.7104">items: List&lt;Object&gt;</text><line style="stroke: #A80036; stroke-width: 1.5;" x1="460.5" x2="584.5" y1="455.3047" y2="455.3047"/><!--class ObjectTreeNode--><rect fill="#FEFECE" filter="url(#f1rhp7f04lza4v)" height="86.4141" id="ObjectTreeNode" style="stroke: #A80036; stroke-width: 1.5;" width="194" x="620.5" y="390"/><ellipse cx="662.95" cy="406" fill="#ADD1B2" rx="11" ry="11" style="stroke: #A80036; stroke-width: 1.0;"/><path d="M665.9188,411.6406 Q665.3406,411.9375 664.7,412.0859 Q664.0594,412.2344 663.3563,412.2344 Q660.8563,412.2344 659.5359,410.5859 Q658.2156,408.9375 658.2156,405.8125 Q658.2156,402.6875 659.5359,401.0313 Q660.8563,399.375 663.3563,399.375 Q664.0594,399.375 664.7078,399.5313 Q665.3563,399.6875 665.9188,399.9844 L665.9188,402.7031 Q665.2938,402.125 664.7,401.8516 Q664.1063,401.5781 663.4813,401.5781 Q662.1375,401.5781 661.45,402.6484 Q660.7625,403.7188 660.7625,405.8125 Q660.7625,407.9063 661.45,408.9766 Q662.1375,410.0469 663.4813,410.0469 Q664.1063,410.0469 664.7,409.7734 Q665.2938,409.5 665.9188,408.9219 L665.9188,411.6406 Z "/><text fill="#000000" font-family="sans-serif" font-size="12" lengthAdjust="spacingAndGlyphs" textLength="101" x="683.05" y="410.1543">ObjectTreeNode</text><line style="stroke: #A80036; stroke-width: 1.5;" x1="621.5" x2="813.5" y1="422" y2="422"/><text fill="#000000" font-family="sans-serif" font-size="11" lengthAdjust="spacingAndGlyphs" textLength="69" x="626.5" y="436.2104">item: Object</text><text fill="#000000" font-family="sans-serif" font-size="11" lengthAdjust="spacingAndGlyphs" textLength="85" x="626.5" y="449.0151">details: Details</text><text fill="#000000" font-family="sans-serif" font-size="11" lengthAdjust="spacingAndGlyphs" textLength="182" x="626.5" y="461.8198">children: List&lt;ObjectTreeNode&gt;</text><line style="stroke: #A80036; stroke-width: 1.5;" x1="621.5" x2="813.5" y1="468.4141" y2="468.4141"/><!--link UseCase to Details--><path d="M363.473,56.121 C382.873,77.51 411.945,109.56 433.929,133.796 " fill="none" id="UseCase-Details" style="stroke: #A80036; stroke-width: 1.0;"/><polygon fill="#A80036" points="437.393,137.616,434.3093,128.2623,434.0338,133.9125,428.3837,133.637,437.393,137.616" style="stroke: #A80036; stroke-width: 1.0;"/><text fill="#000000" font-family="sans-serif" font-size="13" lengthAdjust="spacingAndGlyphs" textLength="42" x="404.5" y="99.0669">details</text><!--link Scenario to Details--><path d="M464.5,56.121 C464.5,77.158 464.5,108.508 464.5,132.593 " fill="none" id="Scenario-Details" style="stroke: #A80036; stroke-width: 1.0;"/><polygon fill="#A80036" points="464.5,137.616,468.5,128.616,464.5,132.616,460.5,128.616,464.5,137.616" style="stroke: #A80036; stroke-width: 1.0;"/><text fill="#000000" font-family="sans-serif" font-size="13" lengthAdjust="spacingAndGlyphs" textLength="42" x="465.5" y="99.0669">details</text><!--link Step to Details--><path d="M554.762,56.121 C537.5,77.422 511.669,109.297 492.057,133.497 " fill="none" id="Step-Details" style="stroke: #A80036; stroke-width: 1.0;"/><polygon fill="#A80036" points="488.718,137.616,497.4917,133.1413,491.8656,133.7311,491.2758,128.1051,488.718,137.616" style="stroke: #A80036; stroke-width: 1.0;"/><text fill="#000000" font-family="sans-serif" font-size="13" lengthAdjust="spacingAndGlyphs" textLength="42" x="530.5" y="99.0669">details</text><!--link Details to Object--><path d="M464.5,199.097 C464.5,217.645 464.5,241.416 464.5,259.71 " fill="none" id="Details-Object" style="stroke: #A80036; stroke-width: 1.0;"/><polygon fill="#A80036" points="464.5,264.716,468.5,255.716,464.5,259.716,460.5,255.716,464.5,264.716" style="stroke: #A80036; stroke-width: 1.0;"/><text fill="#000000" font-family="sans-serif" font-size="13" lengthAdjust="spacingAndGlyphs" textLength="7" x="456.6469" y="254.0517">*</text><!--link Object to String--><path d="M408.412,297.63 C333.232,309.482 197.136,336.715 92.5,390 C82.676,395.0028 72.9823,402.0764 64.675,408.995 " fill="none" id="Object-String" style="stroke: #A80036; stroke-width: 1.0;"/><polygon fill="none" points="407.545,290.682,428.365,294.623,409.632,304.525,407.545,290.682" style="stroke: #A80036; stroke-width: 1.0;"/><!--link Object to ObjectDescription--><path d="M410.219,317.236 C365.616,339.617 302.058,371.508 253.258,395.9942 " fill="none" id="Object-ObjectDescription" style="stroke: #A80036; stroke-width: 1.0;"/><polygon fill="none" points="407.355,310.842,428.37,308.129,413.634,323.355,407.355,310.842" style="stroke: #A80036; stroke-width: 1.0;"/><!--link Object to ObjectReference--><path d="M434.59,329.326 C418.763,350.136 399.463,375.512 384.01,395.8295 " fill="none" id="Object-ObjectReference" style="stroke: #A80036; stroke-width: 1.0;"/><polygon fill="none" points="429.229,324.812,446.908,313.131,440.372,333.287,429.229,324.812" style="stroke: #A80036; stroke-width: 1.0;"/><!--link Object to ObjectList--><path d="M476.675,332.53 C479.627,341.688 482.961,351.243 486.5,360 C492.26,374.253 499.717,389.5507 506.349,402.3639 " fill="none" id="Object-ObjectList" style="stroke: #A80036; stroke-width: 1.0;"/><polygon fill="none" points="469.864,334.193,470.733,313.021,483.257,330.114,469.864,334.193" style="stroke: #A80036; stroke-width: 1.0;"/><!--link ObjectList to Object--><path d="M510.438,402.4684 C500.276,377.5895 485.842,342.251 475.878,317.857 " fill="none" id="ObjectList-Object" style="stroke: #A80036; stroke-width: 1.0;"/><polygon fill="#A80036" points="473.948,313.131,473.6461,322.9752,475.8377,317.7602,481.0527,319.9518,473.948,313.131" style="stroke: #A80036; stroke-width: 1.0;"/><text fill="#000000" font-family="sans-serif" font-size="13" lengthAdjust="spacingAndGlyphs" textLength="36" x="493.5" y="356.0669">items</text><text fill="#000000" font-family="sans-serif" font-size="13" lengthAdjust="spacingAndGlyphs" textLength="7" x="468.3978" y="332.9241">*</text><!--link Object to ObjectTreeNode--><path d="M518.447,320.279 C554.574,340.555 602.628,367.527 642.47,389.8885 " fill="none" id="Object-ObjectTreeNode" style="stroke: #A80036; stroke-width: 1.0;"/><polygon fill="none" points="514.763,326.238,500.749,310.345,521.616,314.03,514.763,326.238" style="stroke: #A80036; stroke-width: 1.0;"/><!--link ObjectTreeNode to Object--><path d="M667.401,389.8755 C646.88,373.886 622.375,356.336 598.5,343 C568.789,326.404 532.817,312.48 505.627,303.075 " fill="none" id="ObjectTreeNode-Object" style="stroke: #A80036; stroke-width: 1.0;"/><polygon fill="#A80036" points="500.655,301.372,507.8716,308.0743,505.3848,302.9934,510.4658,300.5066,500.655,301.372" style="stroke: #A80036; stroke-width: 1.0;"/><text fill="#000000" font-family="sans-serif" font-size="13" lengthAdjust="spacingAndGlyphs" textLength="29" x="624.5" y="356.0669">item</text><text fill="#000000" font-family="sans-serif" font-size="13" lengthAdjust="spacingAndGlyphs" textLength="8" x="508.5605" y="299.4111">1</text><!--link ObjectTreeNode to ObjectTreeNode--><path d="M814.78,418.5273 C834.977,420.0508 849.5,424.875 849.5,433 C849.5,440.4268 837.366,445.0957 819.856,447.0068 " fill="none" id="ObjectTreeNode-ObjectTreeNode" style="stroke: #A80036; stroke-width: 1.0;"/><polygon fill="#A80036" points="814.78,447.4727,824.108,450.6331,819.7591,447.0156,823.3766,442.6666,814.78,447.4727" style="stroke: #A80036; stroke-width: 1.0;"/><text fill="#000000" font-family="sans-serif" font-size="13" lengthAdjust="spacingAndGlyphs" textLength="50" x="855.5" y="437.5669">children</text><text fill="#000000" font-family="sans-serif" font-size="13" lengthAdjust="spacingAndGlyphs" textLength="7" x="822.496" y="445.0627">*</text><!--
@startuml

class UseCase
class Scenario
class Step

class Object

class Details {
    properties: Map<String, Object>
}
note right
An object's further detail properties as entries with
* key: String = the name of the property
* value: can be of different object types,
                 e.g. a simple string or a more complex object
end note

class String

class ObjectDescription {
    name: String
    type: String
    details: Details
}

class ObjectReference {
    name: String
    type: String
}

class ObjectList {
    items: List<Object>
}

class ObjectTreeNode {
    item: Object
    details: Details
    children: List<ObjectTreeNode>
}

UseCase - -> Details : details
Scenario - -> Details : details
Step - -> Details : details

Details - -> "*" Object

Object <|- - String
Object <|- - ObjectDescription
Object <|- - ObjectReference
Object <|- - ObjectList
Object <|- - ObjectTreeNode

ObjectList - -> "*" Object : items
ObjectTreeNode - -> "1" Object : item
ObjectTreeNode - -> "*" ObjectTreeNode : children

@enduml

PlantUML version 1.2019.06(Fri May 24 17:10:25 UTC 2019)
(GPL source distribution)
Java Runtime: OpenJDK Runtime Environment
JVM: OpenJDK 64-Bit Server VM
Java Version: 1.8.0_232-8u232-b09-1~deb9u1-b09
Operating System: Linux
OS Version: 4.15.0-1052-aws
Default Encoding: UTF-8
Language: en
Country: null
--></g></svg>